G04*
G04 #@! TF.GenerationSoftware,Altium Limited,Altium Designer,22.7.1 (60)*
G04*
G04 Layer_Color=8388736*
%FSLAX43Y43*%
%MOMM*%
G71*
G04*
G04 #@! TF.SameCoordinates,B0B9643B-9B23-428C-A4AC-A12B4A47BFEC*
G04*
G04*
G04 #@! TF.FilePolarity,Negative*
G04*
G01*
G75*
G04:AMPARAMS|DCode=17|XSize=6.807mm|YSize=7.518mm|CornerRadius=0.927mm|HoleSize=0mm|Usage=FLASHONLY|Rotation=0.000|XOffset=0mm|YOffset=0mm|HoleType=Round|Shape=RoundedRectangle|*
%AMROUNDEDRECTD17*
21,1,6.807,5.664,0,0,0.0*
21,1,4.953,7.518,0,0,0.0*
1,1,1.854,2.477,-2.832*
1,1,1.854,-2.477,-2.832*
1,1,1.854,-2.477,2.832*
1,1,1.854,2.477,2.832*
%
%ADD17ROUNDEDRECTD17*%
G04:AMPARAMS|DCode=18|XSize=1.143mm|YSize=1.524mm|CornerRadius=0.219mm|HoleSize=0mm|Usage=FLASHONLY|Rotation=0.000|XOffset=0mm|YOffset=0mm|HoleType=Round|Shape=RoundedRectangle|*
%AMROUNDEDRECTD18*
21,1,1.143,1.086,0,0,0.0*
21,1,0.705,1.524,0,0,0.0*
1,1,0.438,0.352,-0.543*
1,1,0.438,-0.352,-0.543*
1,1,0.438,-0.352,0.543*
1,1,0.438,0.352,0.543*
%
%ADD18ROUNDEDRECTD18*%
G04:AMPARAMS|DCode=19|XSize=0.813mm|YSize=1.553mm|CornerRadius=0.178mm|HoleSize=0mm|Usage=FLASHONLY|Rotation=180.000|XOffset=0mm|YOffset=0mm|HoleType=Round|Shape=RoundedRectangle|*
%AMROUNDEDRECTD19*
21,1,0.813,1.198,0,0,180.0*
21,1,0.458,1.553,0,0,180.0*
1,1,0.356,-0.229,0.599*
1,1,0.356,0.229,0.599*
1,1,0.356,0.229,-0.599*
1,1,0.356,-0.229,-0.599*
%
%ADD19ROUNDEDRECTD19*%
G04:AMPARAMS|DCode=20|XSize=2.946mm|YSize=2.362mm|CornerRadius=0.371mm|HoleSize=0mm|Usage=FLASHONLY|Rotation=180.000|XOffset=0mm|YOffset=0mm|HoleType=Round|Shape=RoundedRectangle|*
%AMROUNDEDRECTD20*
21,1,2.946,1.619,0,0,180.0*
21,1,2.203,2.362,0,0,180.0*
1,1,0.743,-1.102,0.810*
1,1,0.743,1.102,0.810*
1,1,0.743,1.102,-0.810*
1,1,0.743,-1.102,-0.810*
%
%ADD20ROUNDEDRECTD20*%
G04:AMPARAMS|DCode=21|XSize=1.113mm|YSize=1.663mm|CornerRadius=0.215mm|HoleSize=0mm|Usage=FLASHONLY|Rotation=180.000|XOffset=0mm|YOffset=0mm|HoleType=Round|Shape=RoundedRectangle|*
%AMROUNDEDRECTD21*
21,1,1.113,1.233,0,0,180.0*
21,1,0.683,1.663,0,0,180.0*
1,1,0.431,-0.341,0.616*
1,1,0.431,0.341,0.616*
1,1,0.431,0.341,-0.616*
1,1,0.431,-0.341,-0.616*
%
%ADD21ROUNDEDRECTD21*%
G04:AMPARAMS|DCode=22|XSize=3.343mm|YSize=1.743mm|CornerRadius=0.294mm|HoleSize=0mm|Usage=FLASHONLY|Rotation=0.000|XOffset=0mm|YOffset=0mm|HoleType=Round|Shape=RoundedRectangle|*
%AMROUNDEDRECTD22*
21,1,3.343,1.155,0,0,0.0*
21,1,2.755,1.743,0,0,0.0*
1,1,0.588,1.378,-0.578*
1,1,0.588,-1.378,-0.578*
1,1,0.588,-1.378,0.578*
1,1,0.588,1.378,0.578*
%
%ADD22ROUNDEDRECTD22*%
G04:AMPARAMS|DCode=23|XSize=1.733mm|YSize=1.223mm|CornerRadius=0.229mm|HoleSize=0mm|Usage=FLASHONLY|Rotation=90.000|XOffset=0mm|YOffset=0mm|HoleType=Round|Shape=RoundedRectangle|*
%AMROUNDEDRECTD23*
21,1,1.733,0.765,0,0,90.0*
21,1,1.275,1.223,0,0,90.0*
1,1,0.458,0.383,0.638*
1,1,0.458,0.383,-0.638*
1,1,0.458,-0.383,-0.638*
1,1,0.458,-0.383,0.638*
%
%ADD23ROUNDEDRECTD23*%
G04:AMPARAMS|DCode=24|XSize=1.733mm|YSize=1.223mm|CornerRadius=0.229mm|HoleSize=0mm|Usage=FLASHONLY|Rotation=180.000|XOffset=0mm|YOffset=0mm|HoleType=Round|Shape=RoundedRectangle|*
%AMROUNDEDRECTD24*
21,1,1.733,0.765,0,0,180.0*
21,1,1.275,1.223,0,0,180.0*
1,1,0.458,-0.638,0.383*
1,1,0.458,0.638,0.383*
1,1,0.458,0.638,-0.383*
1,1,0.458,-0.638,-0.383*
%
%ADD24ROUNDEDRECTD24*%
G04:AMPARAMS|DCode=25|XSize=3.303mm|YSize=5.803mm|CornerRadius=0.489mm|HoleSize=0mm|Usage=FLASHONLY|Rotation=0.000|XOffset=0mm|YOffset=0mm|HoleType=Round|Shape=RoundedRectangle|*
%AMROUNDEDRECTD25*
21,1,3.303,4.825,0,0,0.0*
21,1,2.325,5.803,0,0,0.0*
1,1,0.978,1.163,-2.413*
1,1,0.978,-1.163,-2.413*
1,1,0.978,-1.163,2.413*
1,1,0.978,1.163,2.413*
%
%ADD25ROUNDEDRECTD25*%
G04:AMPARAMS|DCode=26|XSize=0.813mm|YSize=2.113mm|CornerRadius=0.178mm|HoleSize=0mm|Usage=FLASHONLY|Rotation=180.000|XOffset=0mm|YOffset=0mm|HoleType=Round|Shape=RoundedRectangle|*
%AMROUNDEDRECTD26*
21,1,0.813,1.758,0,0,180.0*
21,1,0.458,2.113,0,0,180.0*
1,1,0.356,-0.229,0.879*
1,1,0.356,0.229,0.879*
1,1,0.356,0.229,-0.879*
1,1,0.356,-0.229,-0.879*
%
%ADD26ROUNDEDRECTD26*%
G04:AMPARAMS|DCode=27|XSize=3.303mm|YSize=2.613mm|CornerRadius=0.403mm|HoleSize=0mm|Usage=FLASHONLY|Rotation=180.000|XOffset=0mm|YOffset=0mm|HoleType=Round|Shape=RoundedRectangle|*
%AMROUNDEDRECTD27*
21,1,3.303,1.808,0,0,180.0*
21,1,2.498,2.613,0,0,180.0*
1,1,0.806,-1.249,0.904*
1,1,0.806,1.249,0.904*
1,1,0.806,1.249,-0.904*
1,1,0.806,-1.249,-0.904*
%
%ADD27ROUNDEDRECTD27*%
G04:AMPARAMS|DCode=28|XSize=1.413mm|YSize=1.663mm|CornerRadius=0.253mm|HoleSize=0mm|Usage=FLASHONLY|Rotation=90.000|XOffset=0mm|YOffset=0mm|HoleType=Round|Shape=RoundedRectangle|*
%AMROUNDEDRECTD28*
21,1,1.413,1.158,0,0,90.0*
21,1,0.907,1.663,0,0,90.0*
1,1,0.506,0.579,0.454*
1,1,0.506,0.579,-0.454*
1,1,0.506,-0.579,-0.454*
1,1,0.506,-0.579,0.454*
%
%ADD28ROUNDEDRECTD28*%
G04:AMPARAMS|DCode=29|XSize=1.413mm|YSize=1.663mm|CornerRadius=0.253mm|HoleSize=0mm|Usage=FLASHONLY|Rotation=0.000|XOffset=0mm|YOffset=0mm|HoleType=Round|Shape=RoundedRectangle|*
%AMROUNDEDRECTD29*
21,1,1.413,1.158,0,0,0.0*
21,1,0.907,1.663,0,0,0.0*
1,1,0.506,0.454,-0.579*
1,1,0.506,-0.454,-0.579*
1,1,0.506,-0.454,0.579*
1,1,0.506,0.454,0.579*
%
%ADD29ROUNDEDRECTD29*%
G04:AMPARAMS|DCode=30|XSize=1.503mm|YSize=3.673mm|CornerRadius=0.264mm|HoleSize=0mm|Usage=FLASHONLY|Rotation=90.000|XOffset=0mm|YOffset=0mm|HoleType=Round|Shape=RoundedRectangle|*
%AMROUNDEDRECTD30*
21,1,1.503,3.145,0,0,90.0*
21,1,0.975,3.673,0,0,90.0*
1,1,0.528,1.573,0.488*
1,1,0.528,1.573,-0.488*
1,1,0.528,-1.573,-0.488*
1,1,0.528,-1.573,0.488*
%
%ADD30ROUNDEDRECTD30*%
G04:AMPARAMS|DCode=31|XSize=2.235mm|YSize=2.743mm|CornerRadius=0.356mm|HoleSize=0mm|Usage=FLASHONLY|Rotation=270.000|XOffset=0mm|YOffset=0mm|HoleType=Round|Shape=RoundedRectangle|*
%AMROUNDEDRECTD31*
21,1,2.235,2.032,0,0,270.0*
21,1,1.524,2.743,0,0,270.0*
1,1,0.711,-1.016,-0.762*
1,1,0.711,-1.016,0.762*
1,1,0.711,1.016,0.762*
1,1,0.711,1.016,-0.762*
%
%ADD31ROUNDEDRECTD31*%
G04:AMPARAMS|DCode=32|XSize=0.793mm|YSize=0.803mm|CornerRadius=0.175mm|HoleSize=0mm|Usage=FLASHONLY|Rotation=90.000|XOffset=0mm|YOffset=0mm|HoleType=Round|Shape=RoundedRectangle|*
%AMROUNDEDRECTD32*
21,1,0.793,0.453,0,0,90.0*
21,1,0.443,0.803,0,0,90.0*
1,1,0.351,0.226,0.221*
1,1,0.351,0.226,-0.221*
1,1,0.351,-0.226,-0.221*
1,1,0.351,-0.226,0.221*
%
%ADD32ROUNDEDRECTD32*%
G04:AMPARAMS|DCode=33|XSize=1.483mm|YSize=2.073mm|CornerRadius=0.262mm|HoleSize=0mm|Usage=FLASHONLY|Rotation=0.000|XOffset=0mm|YOffset=0mm|HoleType=Round|Shape=RoundedRectangle|*
%AMROUNDEDRECTD33*
21,1,1.483,1.550,0,0,0.0*
21,1,0.960,2.073,0,0,0.0*
1,1,0.523,0.480,-0.775*
1,1,0.523,-0.480,-0.775*
1,1,0.523,-0.480,0.775*
1,1,0.523,0.480,0.775*
%
%ADD33ROUNDEDRECTD33*%
%ADD34C,6.203*%
%ADD35C,1.903*%
%ADD36R,1.903X1.903*%
%ADD37R,1.903X1.903*%
%ADD38C,2.403*%
D17*
X112392Y113400D02*
D03*
X97423Y113400D02*
D03*
D18*
X114653Y106948D02*
D03*
X110132D02*
D03*
X99684Y106948D02*
D03*
X95163D02*
D03*
D19*
X112000Y89000D02*
D03*
X112950Y87000D02*
D03*
X111050D02*
D03*
X107500Y80000D02*
D03*
X108450Y78000D02*
D03*
X106550D02*
D03*
X106000Y89000D02*
D03*
X106950Y87000D02*
D03*
X105050D02*
D03*
X91000Y89000D02*
D03*
X91950Y87000D02*
D03*
X90050D02*
D03*
X93000Y80000D02*
D03*
X93950Y78000D02*
D03*
X92050D02*
D03*
X97000Y89000D02*
D03*
X97950Y87000D02*
D03*
X96050D02*
D03*
D20*
X106200Y97420D02*
D03*
Y101180D02*
D03*
X91500Y97420D02*
D03*
Y101180D02*
D03*
X54100Y84780D02*
D03*
Y81020D02*
D03*
X59000Y84780D02*
D03*
Y81020D02*
D03*
D21*
X62525Y65600D02*
D03*
X64475D02*
D03*
D22*
X42900Y74125D02*
D03*
Y67475D02*
D03*
D23*
X102493Y78000D02*
D03*
X104507D02*
D03*
X107507Y82000D02*
D03*
X105493D02*
D03*
X100884Y59800D02*
D03*
X98869D02*
D03*
X93450Y59750D02*
D03*
X95465D02*
D03*
X92992Y82000D02*
D03*
X95008D02*
D03*
X39208Y65405D02*
D03*
X37193D02*
D03*
X75393Y69100D02*
D03*
X77408D02*
D03*
X30893Y77500D02*
D03*
X32908D02*
D03*
X68907Y65523D02*
D03*
X66893D02*
D03*
X79193Y69100D02*
D03*
X81207D02*
D03*
D24*
X108100Y104992D02*
D03*
Y107008D02*
D03*
X109600Y97893D02*
D03*
Y99907D02*
D03*
X93400Y104992D02*
D03*
Y107008D02*
D03*
X90000Y75993D02*
D03*
Y78007D02*
D03*
X94900Y97893D02*
D03*
Y99908D02*
D03*
D25*
X59250Y70950D02*
D03*
X48150D02*
D03*
D26*
X37005Y69320D02*
D03*
X35735D02*
D03*
X34465D02*
D03*
X33195D02*
D03*
Y74880D02*
D03*
X34465D02*
D03*
X35735D02*
D03*
X37005D02*
D03*
D27*
X35100Y72100D02*
D03*
D28*
X86760Y67140D02*
D03*
Y65450D02*
D03*
X35100Y63855D02*
D03*
Y65545D02*
D03*
X88800Y65450D02*
D03*
Y67140D02*
D03*
D29*
X39090Y63105D02*
D03*
X37400D02*
D03*
D30*
X49700Y85250D02*
D03*
Y80950D02*
D03*
X45900Y85250D02*
D03*
Y80950D02*
D03*
X41900Y85250D02*
D03*
Y80950D02*
D03*
X37800Y85250D02*
D03*
Y80950D02*
D03*
X79000Y62925D02*
D03*
Y67225D02*
D03*
D31*
X74500Y61789D02*
D03*
Y66361D02*
D03*
X68900Y73786D02*
D03*
Y69214D02*
D03*
X63925Y73836D02*
D03*
Y69264D02*
D03*
D32*
X38620Y74500D02*
D03*
Y75525D02*
D03*
D33*
X34572Y82376D02*
D03*
X31572D02*
D03*
X34572Y84976D02*
D03*
X31572D02*
D03*
D34*
X32500Y112300D02*
D03*
Y96750D02*
D03*
X97900Y121800D02*
D03*
X82900Y121800D02*
D03*
X112900D02*
D03*
D35*
X102500Y54600D02*
D03*
X99000D02*
D03*
X94740Y62250D02*
D03*
X97280D02*
D03*
X99820D02*
D03*
X92200Y69870D02*
D03*
X94740D02*
D03*
X97280D02*
D03*
X99820D02*
D03*
D36*
X95500Y54600D02*
D03*
D37*
X92200Y62250D02*
D03*
D38*
X65000Y104250D02*
D03*
Y96750D02*
D03*
X47500Y114050D02*
D03*
Y121550D02*
D03*
X47700Y104250D02*
D03*
Y96750D02*
D03*
X65000Y114250D02*
D03*
Y121750D02*
D03*
M02*
