G04*
G04 #@! TF.GenerationSoftware,Altium Limited,Altium Designer,22.7.1 (60)*
G04*
G04 Layer_Physical_Order=1*
G04 Layer_Color=16776960*
%FSLAX43Y43*%
%MOMM*%
G71*
G04*
G04 #@! TF.SameCoordinates,B0B9643B-9B23-428C-A4AC-A12B4A47BFEC*
G04*
G04*
G04 #@! TF.FilePolarity,Positive*
G04*
G01*
G75*
%ADD39C,1.000*%
%ADD40C,0.500*%
%ADD41C,0.750*%
%ADD42C,0.300*%
%ADD43C,0.500*%
G04:AMPARAMS|DCode=44|XSize=6.604mm|YSize=7.315mm|CornerRadius=0.826mm|HoleSize=0mm|Usage=FLASHONLY|Rotation=0.000|XOffset=0mm|YOffset=0mm|HoleType=Round|Shape=RoundedRectangle|*
%AMROUNDEDRECTD44*
21,1,6.604,5.664,0,0,0.0*
21,1,4.953,7.315,0,0,0.0*
1,1,1.651,2.477,-2.832*
1,1,1.651,-2.477,-2.832*
1,1,1.651,-2.477,2.832*
1,1,1.651,2.477,2.832*
%
%ADD44ROUNDEDRECTD44*%
G04:AMPARAMS|DCode=45|XSize=0.94mm|YSize=1.321mm|CornerRadius=0.117mm|HoleSize=0mm|Usage=FLASHONLY|Rotation=0.000|XOffset=0mm|YOffset=0mm|HoleType=Round|Shape=RoundedRectangle|*
%AMROUNDEDRECTD45*
21,1,0.940,1.086,0,0,0.0*
21,1,0.705,1.321,0,0,0.0*
1,1,0.235,0.352,-0.543*
1,1,0.235,-0.352,-0.543*
1,1,0.235,-0.352,0.543*
1,1,0.235,0.352,0.543*
%
%ADD45ROUNDEDRECTD45*%
G04:AMPARAMS|DCode=46|XSize=0.61mm|YSize=1.35mm|CornerRadius=0.076mm|HoleSize=0mm|Usage=FLASHONLY|Rotation=180.000|XOffset=0mm|YOffset=0mm|HoleType=Round|Shape=RoundedRectangle|*
%AMROUNDEDRECTD46*
21,1,0.610,1.198,0,0,180.0*
21,1,0.458,1.350,0,0,180.0*
1,1,0.153,-0.229,0.599*
1,1,0.153,0.229,0.599*
1,1,0.153,0.229,-0.599*
1,1,0.153,-0.229,-0.599*
%
%ADD46ROUNDEDRECTD46*%
G04:AMPARAMS|DCode=47|XSize=2.743mm|YSize=2.159mm|CornerRadius=0.27mm|HoleSize=0mm|Usage=FLASHONLY|Rotation=180.000|XOffset=0mm|YOffset=0mm|HoleType=Round|Shape=RoundedRectangle|*
%AMROUNDEDRECTD47*
21,1,2.743,1.619,0,0,180.0*
21,1,2.203,2.159,0,0,180.0*
1,1,0.540,-1.102,0.810*
1,1,0.540,1.102,0.810*
1,1,0.540,1.102,-0.810*
1,1,0.540,-1.102,-0.810*
%
%ADD47ROUNDEDRECTD47*%
G04:AMPARAMS|DCode=48|XSize=0.91mm|YSize=1.46mm|CornerRadius=0.114mm|HoleSize=0mm|Usage=FLASHONLY|Rotation=180.000|XOffset=0mm|YOffset=0mm|HoleType=Round|Shape=RoundedRectangle|*
%AMROUNDEDRECTD48*
21,1,0.910,1.233,0,0,180.0*
21,1,0.683,1.460,0,0,180.0*
1,1,0.228,-0.341,0.616*
1,1,0.228,0.341,0.616*
1,1,0.228,0.341,-0.616*
1,1,0.228,-0.341,-0.616*
%
%ADD48ROUNDEDRECTD48*%
G04:AMPARAMS|DCode=49|XSize=3.14mm|YSize=1.54mm|CornerRadius=0.193mm|HoleSize=0mm|Usage=FLASHONLY|Rotation=0.000|XOffset=0mm|YOffset=0mm|HoleType=Round|Shape=RoundedRectangle|*
%AMROUNDEDRECTD49*
21,1,3.140,1.155,0,0,0.0*
21,1,2.755,1.540,0,0,0.0*
1,1,0.385,1.378,-0.578*
1,1,0.385,-1.378,-0.578*
1,1,0.385,-1.378,0.578*
1,1,0.385,1.378,0.578*
%
%ADD49ROUNDEDRECTD49*%
G04:AMPARAMS|DCode=50|XSize=1.53mm|YSize=1.02mm|CornerRadius=0.127mm|HoleSize=0mm|Usage=FLASHONLY|Rotation=90.000|XOffset=0mm|YOffset=0mm|HoleType=Round|Shape=RoundedRectangle|*
%AMROUNDEDRECTD50*
21,1,1.530,0.765,0,0,90.0*
21,1,1.275,1.020,0,0,90.0*
1,1,0.255,0.383,0.638*
1,1,0.255,0.383,-0.638*
1,1,0.255,-0.383,-0.638*
1,1,0.255,-0.383,0.638*
%
%ADD50ROUNDEDRECTD50*%
G04:AMPARAMS|DCode=51|XSize=1.53mm|YSize=1.02mm|CornerRadius=0.127mm|HoleSize=0mm|Usage=FLASHONLY|Rotation=180.000|XOffset=0mm|YOffset=0mm|HoleType=Round|Shape=RoundedRectangle|*
%AMROUNDEDRECTD51*
21,1,1.530,0.765,0,0,180.0*
21,1,1.275,1.020,0,0,180.0*
1,1,0.255,-0.638,0.383*
1,1,0.255,0.638,0.383*
1,1,0.255,0.638,-0.383*
1,1,0.255,-0.638,-0.383*
%
%ADD51ROUNDEDRECTD51*%
G04:AMPARAMS|DCode=52|XSize=3.1mm|YSize=5.6mm|CornerRadius=0.388mm|HoleSize=0mm|Usage=FLASHONLY|Rotation=0.000|XOffset=0mm|YOffset=0mm|HoleType=Round|Shape=RoundedRectangle|*
%AMROUNDEDRECTD52*
21,1,3.100,4.825,0,0,0.0*
21,1,2.325,5.600,0,0,0.0*
1,1,0.775,1.163,-2.413*
1,1,0.775,-1.163,-2.413*
1,1,0.775,-1.163,2.413*
1,1,0.775,1.163,2.413*
%
%ADD52ROUNDEDRECTD52*%
G04:AMPARAMS|DCode=53|XSize=0.61mm|YSize=1.91mm|CornerRadius=0.076mm|HoleSize=0mm|Usage=FLASHONLY|Rotation=180.000|XOffset=0mm|YOffset=0mm|HoleType=Round|Shape=RoundedRectangle|*
%AMROUNDEDRECTD53*
21,1,0.610,1.758,0,0,180.0*
21,1,0.458,1.910,0,0,180.0*
1,1,0.153,-0.229,0.879*
1,1,0.153,0.229,0.879*
1,1,0.153,0.229,-0.879*
1,1,0.153,-0.229,-0.879*
%
%ADD53ROUNDEDRECTD53*%
G04:AMPARAMS|DCode=54|XSize=3.1mm|YSize=2.41mm|CornerRadius=0.301mm|HoleSize=0mm|Usage=FLASHONLY|Rotation=180.000|XOffset=0mm|YOffset=0mm|HoleType=Round|Shape=RoundedRectangle|*
%AMROUNDEDRECTD54*
21,1,3.100,1.808,0,0,180.0*
21,1,2.498,2.410,0,0,180.0*
1,1,0.603,-1.249,0.904*
1,1,0.603,1.249,0.904*
1,1,0.603,1.249,-0.904*
1,1,0.603,-1.249,-0.904*
%
%ADD54ROUNDEDRECTD54*%
G04:AMPARAMS|DCode=55|XSize=1.21mm|YSize=1.46mm|CornerRadius=0.151mm|HoleSize=0mm|Usage=FLASHONLY|Rotation=90.000|XOffset=0mm|YOffset=0mm|HoleType=Round|Shape=RoundedRectangle|*
%AMROUNDEDRECTD55*
21,1,1.210,1.158,0,0,90.0*
21,1,0.907,1.460,0,0,90.0*
1,1,0.303,0.579,0.454*
1,1,0.303,0.579,-0.454*
1,1,0.303,-0.579,-0.454*
1,1,0.303,-0.579,0.454*
%
%ADD55ROUNDEDRECTD55*%
G04:AMPARAMS|DCode=56|XSize=1.21mm|YSize=1.46mm|CornerRadius=0.151mm|HoleSize=0mm|Usage=FLASHONLY|Rotation=0.000|XOffset=0mm|YOffset=0mm|HoleType=Round|Shape=RoundedRectangle|*
%AMROUNDEDRECTD56*
21,1,1.210,1.158,0,0,0.0*
21,1,0.907,1.460,0,0,0.0*
1,1,0.303,0.454,-0.579*
1,1,0.303,-0.454,-0.579*
1,1,0.303,-0.454,0.579*
1,1,0.303,0.454,0.579*
%
%ADD56ROUNDEDRECTD56*%
G04:AMPARAMS|DCode=57|XSize=1.3mm|YSize=3.47mm|CornerRadius=0.163mm|HoleSize=0mm|Usage=FLASHONLY|Rotation=90.000|XOffset=0mm|YOffset=0mm|HoleType=Round|Shape=RoundedRectangle|*
%AMROUNDEDRECTD57*
21,1,1.300,3.145,0,0,90.0*
21,1,0.975,3.470,0,0,90.0*
1,1,0.325,1.573,0.488*
1,1,0.325,1.573,-0.488*
1,1,0.325,-1.573,-0.488*
1,1,0.325,-1.573,0.488*
%
%ADD57ROUNDEDRECTD57*%
G04:AMPARAMS|DCode=58|XSize=2.032mm|YSize=2.54mm|CornerRadius=0.254mm|HoleSize=0mm|Usage=FLASHONLY|Rotation=270.000|XOffset=0mm|YOffset=0mm|HoleType=Round|Shape=RoundedRectangle|*
%AMROUNDEDRECTD58*
21,1,2.032,2.032,0,0,270.0*
21,1,1.524,2.540,0,0,270.0*
1,1,0.508,-1.016,-0.762*
1,1,0.508,-1.016,0.762*
1,1,0.508,1.016,0.762*
1,1,0.508,1.016,-0.762*
%
%ADD58ROUNDEDRECTD58*%
G04:AMPARAMS|DCode=59|XSize=0.59mm|YSize=0.6mm|CornerRadius=0.074mm|HoleSize=0mm|Usage=FLASHONLY|Rotation=90.000|XOffset=0mm|YOffset=0mm|HoleType=Round|Shape=RoundedRectangle|*
%AMROUNDEDRECTD59*
21,1,0.590,0.453,0,0,90.0*
21,1,0.443,0.600,0,0,90.0*
1,1,0.148,0.226,0.221*
1,1,0.148,0.226,-0.221*
1,1,0.148,-0.226,-0.221*
1,1,0.148,-0.226,0.221*
%
%ADD59ROUNDEDRECTD59*%
G04:AMPARAMS|DCode=60|XSize=1.28mm|YSize=1.87mm|CornerRadius=0.16mm|HoleSize=0mm|Usage=FLASHONLY|Rotation=0.000|XOffset=0mm|YOffset=0mm|HoleType=Round|Shape=RoundedRectangle|*
%AMROUNDEDRECTD60*
21,1,1.280,1.550,0,0,0.0*
21,1,0.960,1.870,0,0,0.0*
1,1,0.320,0.480,-0.775*
1,1,0.320,-0.480,-0.775*
1,1,0.320,-0.480,0.775*
1,1,0.320,0.480,0.775*
%
%ADD60ROUNDEDRECTD60*%
%ADD61C,6.000*%
%ADD62C,1.700*%
%ADD63R,1.700X1.700*%
%ADD64R,1.700X1.700*%
%ADD65C,2.200*%
%ADD66C,1.000*%
%ADD67C,0.700*%
G36*
X117163Y126211D02*
X117579Y125933D01*
X117933Y125579D01*
X118211Y125163D01*
X118402Y124701D01*
X118500Y124210D01*
Y123960D01*
Y112240D01*
Y111990D01*
X118402Y111499D01*
X118211Y111037D01*
X117933Y110621D01*
X117579Y110267D01*
X117163Y109989D01*
X116701Y109798D01*
X116210Y109700D01*
X109290D01*
X108799Y109798D01*
X108337Y109989D01*
X107921Y110267D01*
X107567Y110621D01*
X107289Y111037D01*
X107098Y111499D01*
X107000Y111990D01*
Y112240D01*
Y123960D01*
Y124210D01*
X107098Y124701D01*
X107289Y125163D01*
X107567Y125579D01*
X107921Y125933D01*
X108337Y126211D01*
X108532Y126292D01*
X116968D01*
X117163Y126211D01*
D02*
G37*
G36*
X102163Y126211D02*
X102579Y125933D01*
X102933Y125579D01*
X103211Y125163D01*
X103402Y124701D01*
X103500Y124210D01*
Y123960D01*
X103500Y112200D01*
X103500Y111954D01*
X103404Y111471D01*
X103215Y111016D01*
X102942Y110606D01*
X102594Y110258D01*
X102184Y109985D01*
X101729Y109796D01*
X101246Y109700D01*
X101000Y109700D01*
X94540Y109700D01*
X94290Y109700D01*
X93799Y109798D01*
X93337Y109989D01*
X92921Y110267D01*
X92567Y110621D01*
X92289Y111037D01*
X92098Y111499D01*
X92000Y111990D01*
X92000Y112240D01*
Y123960D01*
Y124210D01*
X92098Y124701D01*
X92289Y125163D01*
X92567Y125579D01*
X92921Y125933D01*
X93337Y126211D01*
X93532Y126292D01*
X101968D01*
X102163Y126211D01*
D02*
G37*
G36*
X100650Y108750D02*
X100852Y108750D01*
X101248Y108671D01*
X101621Y108517D01*
X101957Y108292D01*
X102242Y108007D01*
X102467Y107671D01*
X102621Y107298D01*
X102700Y106902D01*
X102700Y106700D01*
X102700D01*
X102700Y106700D01*
X102700Y92400D01*
X102700Y92237D01*
X102637Y91919D01*
X102512Y91618D01*
X102332Y91348D01*
X102102Y91118D01*
X101832Y90938D01*
X101531Y90813D01*
X101213Y90750D01*
X101050Y90750D01*
X101050Y90750D01*
X101050Y90750D01*
X98550Y90750D01*
X98397Y90750D01*
X98098Y90810D01*
X97816Y90926D01*
X97562Y91096D01*
X97346Y91312D01*
X97268Y91429D01*
X97222Y91540D01*
X97115Y91715D01*
X97060Y91848D01*
X97000Y92147D01*
X97000Y92300D01*
X97000Y92300D01*
X97000Y106627D01*
X97000Y106836D01*
X97082Y107247D01*
X97242Y107633D01*
X97474Y107980D01*
X97770Y108276D01*
X98117Y108508D01*
X98503Y108668D01*
X98914Y108750D01*
X99123Y108750D01*
X99123Y108750D01*
X100650Y108750D01*
D02*
G37*
G36*
X114092Y108750D02*
Y108750D01*
X114092Y108750D01*
X115619Y108750D01*
X115821Y108750D01*
X116217Y108671D01*
X116590Y108517D01*
X116926Y108292D01*
X117211Y108007D01*
X117436Y107671D01*
X117590Y107298D01*
X117669Y106902D01*
X117669Y106700D01*
X117669Y106700D01*
X117669Y106700D01*
X117669Y92400D01*
X117669Y92237D01*
X117606Y91919D01*
X117481Y91618D01*
X117301Y91348D01*
X117071Y91118D01*
X116801Y90938D01*
X116500Y90813D01*
X116182Y90750D01*
X116019Y90750D01*
X113519Y90750D01*
X113366Y90750D01*
X113067Y90810D01*
X112785Y90926D01*
X112531Y91096D01*
X112317Y91310D01*
X112222Y91540D01*
X112026Y91859D01*
X111969Y92147D01*
X111969Y92300D01*
X111969Y106627D01*
X111969Y106836D01*
X112051Y107247D01*
X112211Y107633D01*
X112443Y107980D01*
X112739Y108276D01*
X113086Y108508D01*
X113473Y108668D01*
X113883Y108750D01*
X114092Y108750D01*
D02*
G37*
G36*
X85663Y126111D02*
X86079Y125833D01*
X86433Y125479D01*
X86711Y125063D01*
X86902Y124601D01*
X87000Y124110D01*
Y123860D01*
X87000Y107773D01*
X87035Y107102D01*
X87027Y105760D01*
X86942Y104420D01*
X86780Y103088D01*
X86540Y101767D01*
X86225Y100462D01*
X85835Y99177D01*
X85371Y97917D01*
X84835Y96686D01*
X84229Y95489D01*
X83554Y94328D01*
X82814Y93208D01*
X82010Y92133D01*
X81145Y91106D01*
X80222Y90131D01*
X79244Y89211D01*
X78215Y88349D01*
X77138Y87548D01*
X76016Y86810D01*
X74854Y86139D01*
X73654Y85536D01*
X72422Y85003D01*
X71161Y84543D01*
X69875Y84156D01*
X69222Y84000D01*
X60581Y84000D01*
Y84380D01*
X57419D01*
Y84000D01*
X55681Y84000D01*
Y84380D01*
X54100D01*
Y84780D01*
X53700D01*
Y86069D01*
X52998D01*
X52939Y86057D01*
X51544D01*
X51435Y86130D01*
X51273Y86162D01*
X49827D01*
Y85250D01*
X49573D01*
Y86162D01*
X49438D01*
X44600Y91000D01*
X31019Y104581D01*
X30780Y104820D01*
X30350Y105344D01*
X29974Y105907D01*
X29654Y106504D01*
X29395Y107130D01*
X29199Y107778D01*
X29066Y108443D01*
X29000Y109117D01*
Y109456D01*
Y109456D01*
X29000Y124500D01*
Y124687D01*
X29073Y125054D01*
X29216Y125400D01*
X29424Y125711D01*
X29689Y125976D01*
X30000Y126184D01*
X30260Y126292D01*
X85227D01*
X85663Y126111D01*
D02*
G37*
G36*
X49400Y78600D02*
X49400Y78600D01*
X49508D01*
X49721Y78558D01*
X49921Y78475D01*
X50101Y78354D01*
X50254Y78201D01*
X50375Y78021D01*
X50458Y77821D01*
X50500Y77608D01*
Y77500D01*
X50500Y67400D01*
X50500Y67400D01*
Y67311D01*
X50465Y67137D01*
X50398Y66974D01*
X50299Y66826D01*
X50174Y66701D01*
X50026Y66602D01*
X49863Y66535D01*
X49689Y66500D01*
X47179D01*
X47179Y66500D01*
X47058Y66500D01*
X46820Y66549D01*
X46598Y66645D01*
X46400Y66783D01*
X46233Y66959D01*
X46106Y67165D01*
X46022Y67392D01*
X45986Y67632D01*
X45993Y67752D01*
X45993Y67753D01*
X45993Y67753D01*
X46000Y68057D01*
X45951Y68664D01*
X45820Y69259D01*
X45610Y69831D01*
X45325Y70370D01*
X44970Y70865D01*
X44551Y71307D01*
X44077Y71689D01*
X43555Y72003D01*
X42995Y72244D01*
X42408Y72407D01*
X41805Y72490D01*
X41500Y72500D01*
X41500Y72500D01*
X41314Y72491D01*
X40948Y72418D01*
X40604Y72276D01*
X40295Y72069D01*
X40031Y71805D01*
X39824Y71496D01*
X39682Y71152D01*
X39609Y70786D01*
X39600Y70600D01*
X39600Y70600D01*
X39623Y70380D01*
X39587Y69939D01*
X39472Y69512D01*
X39280Y69113D01*
X39019Y68756D01*
X38698Y68452D01*
X38326Y68213D01*
X37917Y68045D01*
X37700Y68000D01*
X36500Y67800D01*
X36308Y68280D01*
X36318Y68294D01*
X36342Y68417D01*
X36444D01*
X36465Y68312D01*
X36538Y68203D01*
X36630Y68142D01*
Y69320D01*
X37005D01*
Y69695D01*
X37570D01*
Y70199D01*
X37545Y70328D01*
X37472Y70437D01*
X37363Y70510D01*
X37234Y70535D01*
X37158D01*
X37005Y70566D01*
X36853Y70535D01*
X36776D01*
X36647Y70510D01*
X36538Y70437D01*
X36465Y70328D01*
X36444Y70223D01*
X36342D01*
X36318Y70346D01*
X36300Y70373D01*
Y70500D01*
X36345Y70583D01*
X36349D01*
X36583Y70630D01*
X36756Y70745D01*
X36900D01*
X36900Y70745D01*
Y70745D01*
X36996Y70738D01*
X37189Y70752D01*
X37375Y70803D01*
X37548Y70889D01*
X37700Y71008D01*
X37827Y71154D01*
X37922Y71322D01*
X37983Y71505D01*
X38000Y71600D01*
X38000Y74105D01*
X38100Y74128D01*
X38157Y74042D01*
X38245Y73984D01*
Y74500D01*
X38620D01*
Y74875D01*
X39138D01*
X39121Y74900D01*
X39174Y75000D01*
X40000D01*
X40098Y75010D01*
X40278Y75084D01*
X40416Y75222D01*
X40490Y75402D01*
X40500Y75500D01*
X40500Y76060D01*
Y76310D01*
X40598Y76801D01*
X40789Y77263D01*
X41067Y77679D01*
X41421Y78033D01*
X41837Y78311D01*
X42299Y78502D01*
X42790Y78600D01*
X49400D01*
X49400Y78600D01*
D02*
G37*
%LPC*%
G36*
X65000Y123358D02*
X64686Y123327D01*
X64385Y123235D01*
X64107Y123087D01*
X63863Y122887D01*
X63663Y122643D01*
X63515Y122365D01*
X63423Y122064D01*
X63392Y121750D01*
X63423Y121436D01*
X63515Y121135D01*
X63663Y120857D01*
X63863Y120613D01*
X64107Y120413D01*
X64385Y120265D01*
X64686Y120173D01*
X65000Y120142D01*
X65314Y120173D01*
X65615Y120265D01*
X65893Y120413D01*
X66137Y120613D01*
X66337Y120857D01*
X66485Y121135D01*
X66577Y121436D01*
X66608Y121750D01*
X66577Y122064D01*
X66485Y122365D01*
X66337Y122643D01*
X66137Y122887D01*
X65893Y123087D01*
X65615Y123235D01*
X65314Y123327D01*
X65000Y123358D01*
D02*
G37*
G36*
X47500Y123158D02*
X47186Y123127D01*
X46885Y123035D01*
X46607Y122887D01*
X46363Y122687D01*
X46163Y122443D01*
X46015Y122165D01*
X45923Y121864D01*
X45892Y121550D01*
X45923Y121236D01*
X46015Y120935D01*
X46163Y120657D01*
X46363Y120413D01*
X46607Y120213D01*
X46885Y120065D01*
X47186Y119973D01*
X47500Y119942D01*
X47814Y119973D01*
X48115Y120065D01*
X48393Y120213D01*
X48637Y120413D01*
X48837Y120657D01*
X48985Y120935D01*
X49077Y121236D01*
X49108Y121550D01*
X49077Y121864D01*
X48985Y122165D01*
X48837Y122443D01*
X48637Y122687D01*
X48393Y122887D01*
X48115Y123035D01*
X47814Y123127D01*
X47500Y123158D01*
D02*
G37*
G36*
X65000Y98358D02*
X64686Y98327D01*
X64385Y98235D01*
X64107Y98087D01*
X63863Y97887D01*
X63663Y97643D01*
X63515Y97365D01*
X63423Y97064D01*
X63392Y96750D01*
X63423Y96436D01*
X63515Y96135D01*
X63663Y95857D01*
X63863Y95613D01*
X64107Y95413D01*
X64385Y95265D01*
X64686Y95173D01*
X65000Y95142D01*
X65314Y95173D01*
X65615Y95265D01*
X65893Y95413D01*
X66137Y95613D01*
X66337Y95857D01*
X66485Y96135D01*
X66577Y96436D01*
X66608Y96750D01*
X66577Y97064D01*
X66485Y97365D01*
X66337Y97643D01*
X66137Y97887D01*
X65893Y98087D01*
X65615Y98235D01*
X65314Y98327D01*
X65000Y98358D01*
D02*
G37*
G36*
X47700D02*
X47386Y98327D01*
X47085Y98235D01*
X46807Y98087D01*
X46563Y97887D01*
X46363Y97643D01*
X46215Y97365D01*
X46123Y97064D01*
X46092Y96750D01*
X46123Y96436D01*
X46215Y96135D01*
X46363Y95857D01*
X46563Y95613D01*
X46807Y95413D01*
X47085Y95265D01*
X47386Y95173D01*
X47700Y95142D01*
X48014Y95173D01*
X48315Y95265D01*
X48593Y95413D01*
X48837Y95613D01*
X49037Y95857D01*
X49185Y96135D01*
X49277Y96436D01*
X49308Y96750D01*
X49277Y97064D01*
X49185Y97365D01*
X49037Y97643D01*
X48837Y97887D01*
X48593Y98087D01*
X48315Y98235D01*
X48014Y98327D01*
X47700Y98358D01*
D02*
G37*
G36*
X60102Y86069D02*
X59400D01*
Y85180D01*
X60581D01*
Y85590D01*
X60544Y85773D01*
X60440Y85928D01*
X60285Y86032D01*
X60102Y86069D01*
D02*
G37*
G36*
X58600D02*
X57898D01*
X57715Y86032D01*
X57560Y85928D01*
X57456Y85773D01*
X57419Y85590D01*
Y85180D01*
X58600D01*
Y86069D01*
D02*
G37*
G36*
X55202D02*
X54500D01*
Y85180D01*
X55681D01*
Y85590D01*
X55644Y85773D01*
X55540Y85928D01*
X55385Y86032D01*
X55202Y86069D01*
D02*
G37*
G36*
X44278Y75158D02*
X43275D01*
Y74500D01*
X44733D01*
Y74702D01*
X44698Y74877D01*
X44599Y75024D01*
X44452Y75123D01*
X44278Y75158D01*
D02*
G37*
G36*
X42525D02*
X41523D01*
X41348Y75123D01*
X41201Y75024D01*
X41102Y74877D01*
X41067Y74702D01*
Y74500D01*
X42525D01*
Y75158D01*
D02*
G37*
G36*
X39138Y74125D02*
X38995D01*
Y73984D01*
X39083Y74042D01*
X39138Y74125D01*
D02*
G37*
G36*
X44733Y73750D02*
X43275D01*
Y73092D01*
X44278D01*
X44452Y73127D01*
X44599Y73226D01*
X44698Y73373D01*
X44733Y73548D01*
Y73750D01*
D02*
G37*
G36*
X42525D02*
X41067D01*
Y73548D01*
X41102Y73373D01*
X41201Y73226D01*
X41348Y73127D01*
X41523Y73092D01*
X42525D01*
Y73750D01*
D02*
G37*
G36*
X49312Y74017D02*
X48525D01*
Y71325D01*
X49967D01*
Y73362D01*
X49917Y73613D01*
X49775Y73825D01*
X49563Y73967D01*
X49312Y74017D01*
D02*
G37*
G36*
X47775D02*
X46987D01*
X46737Y73967D01*
X46525Y73825D01*
X46383Y73613D01*
X46333Y73362D01*
Y71325D01*
X47775D01*
Y74017D01*
D02*
G37*
G36*
X37570Y68945D02*
X37380D01*
Y68142D01*
X37472Y68203D01*
X37545Y68312D01*
X37570Y68441D01*
Y68945D01*
D02*
G37*
G36*
X49967Y70575D02*
X48525D01*
Y67883D01*
X49312D01*
X49563Y67933D01*
X49775Y68075D01*
X49917Y68287D01*
X49967Y68537D01*
Y70575D01*
D02*
G37*
G36*
X47775D02*
X46333D01*
Y68537D01*
X46383Y68287D01*
X46525Y68075D01*
X46737Y67933D01*
X46987Y67883D01*
X47775D01*
Y70575D01*
D02*
G37*
%LPD*%
D39*
X76416Y67225D02*
G03*
X74620Y66481I0J-2540D01*
G01*
X74500Y66361D02*
G03*
X73861Y67000I-639J0D01*
G01*
X68900Y69214D02*
G03*
X71114Y67000I2214J0D01*
G01*
X34846Y85250D02*
G03*
X34572Y84976I0J-274D01*
G01*
X54100Y84780D02*
G03*
X53630Y85250I-470J0D01*
G01*
X76416Y67225D02*
X79000D01*
X71114Y67000D02*
X73861D01*
X74500Y66361D02*
X74620Y66481D01*
X62500Y68750D02*
X68900D01*
Y69214D01*
X45900Y85250D02*
X49700D01*
X41900D02*
X45900D01*
X37800D02*
X41900D01*
X59000Y68750D02*
X62500D01*
X34572Y82376D02*
Y84976D01*
X34846Y85250D02*
X37800D01*
X53640Y84780D02*
X54100D01*
X49700Y85250D02*
X53630D01*
D40*
X92050Y74455D02*
G03*
X93390Y71220I4575J0D01*
G01*
X105050Y87000D02*
G03*
X106858Y82634I6174J0D01*
G01*
X63925Y73836D02*
G03*
X64000Y74017I-181J181D01*
G01*
X33195Y77213D02*
G03*
X32908Y77500I-287J0D01*
G01*
X105560Y75610D02*
G03*
X106550Y78000I-2390J2390D01*
G01*
X106744Y91744D02*
G03*
X106000Y89948I1796J-1796D01*
G01*
X106672Y97893D02*
G03*
X106200Y97420I0J-472D01*
G01*
X112000Y90133D02*
G03*
X111256Y91929I-2540J0D01*
G01*
X106200Y101180D02*
G03*
X107473Y99907I1273J0D01*
G01*
X110132Y100072D02*
G03*
X110200Y99907I233J0D01*
G01*
X110132Y106948D02*
G03*
X109766Y107100I-366J-366D01*
G01*
X35154Y60066D02*
G03*
X36752Y59500I1599J1974D01*
G01*
X33195Y63077D02*
G03*
X33939Y61281I2540J0D01*
G01*
X95465Y60500D02*
G03*
X94740Y62250I-2475J0D01*
G01*
D02*
G03*
X94715Y62190I60J-60D01*
G01*
X95500Y59665D02*
G03*
X95465Y59750I-120J0D01*
G01*
X90050Y84950D02*
G03*
X93000Y82000I2950J0D01*
G01*
X95832Y86700D02*
G03*
X93293Y84160I0J-2540D01*
G01*
X95832Y86700D02*
G03*
X93293Y84160I0J-2540D01*
G01*
X62525Y68725D02*
G03*
X62500Y68750I-25J0D01*
G01*
X81207Y67430D02*
G03*
X81300Y67206I316J0D01*
G01*
X106993Y86958D02*
G03*
X106950Y87000I-42J0D01*
G01*
X99613Y62043D02*
G03*
X98869Y60247I1796J-1796D01*
G01*
X99000Y59484D02*
G03*
X98869Y59800I-447J0D01*
G01*
X91744Y91744D02*
G03*
X91000Y89948I1796J-1796D01*
G01*
X91973Y97893D02*
G03*
X91500Y97420I0J-473D01*
G01*
X97000Y90133D02*
G03*
X96256Y91929I-2540J0D01*
G01*
X91500Y101180D02*
G03*
X92772Y99908I1272J0D01*
G01*
X94900D02*
G03*
X95163Y100542I-635J635D01*
G01*
Y106942D02*
G03*
X94711Y107100I-452J-567D01*
G01*
X95223Y106888D02*
G03*
X95163Y106942I-512J-512D01*
G01*
X95223Y106888D02*
G03*
X95163Y106948I-61J-0D01*
G01*
X89000Y64967D02*
G03*
X88800Y65450I-683J0D01*
G01*
X92000Y86879D02*
G03*
X91950Y87000I-171J0D01*
G01*
X94000Y77879D02*
G03*
X93950Y78000I-171J0D01*
G01*
X35735Y70567D02*
G03*
X35100Y72100I-2168J0D01*
G01*
X31572Y82376D02*
G03*
X31514Y82400I-58J-58D01*
G01*
X38000Y80750D02*
G03*
X37900Y80850I-100J0D01*
G01*
X42000Y80850D02*
G03*
X41900Y80950I-100J0D01*
G01*
X31572Y84976D02*
G03*
X31514Y85000I-58J-58D01*
G01*
X46000Y80850D02*
G03*
X45900Y80950I-100J0D01*
G01*
X49700Y80950D02*
G03*
X49500Y80750I0J-200D01*
G01*
X54100Y81020D02*
G03*
X54000Y80920I0J-100D01*
G01*
X68800Y73886D02*
G03*
X68900Y73786I100J0D01*
G01*
X59100Y80920D02*
G03*
X59000Y81020I-100J0D01*
G01*
X70700Y65500D02*
G03*
X70600Y65600I-100J0D01*
G01*
X93500Y104751D02*
G03*
X93400Y104992I-341J0D01*
G01*
X108200Y104651D02*
G03*
X108100Y104892I-341J0D01*
G01*
X95727Y83727D02*
G03*
X95015Y82007I1720J-1720D01*
G01*
X97500Y85500D02*
G03*
X97950Y86586I-1086J1086D01*
G01*
X110700Y85700D02*
G03*
X111050Y86545I-845J845D01*
G01*
X107866Y82866D02*
G03*
X107507Y82000I866J-866D01*
G01*
X37400Y61000D02*
Y63005D01*
Y60900D02*
Y61000D01*
X35400Y62100D02*
Y63845D01*
X73900Y69100D02*
X75393D01*
X75393Y69100D01*
X77400Y70800D02*
X77408Y70793D01*
Y69100D02*
Y70793D01*
X93390Y71220D02*
X94740Y69870D01*
X92050Y74455D02*
Y78000D01*
X94000Y76000D02*
Y76100D01*
X108500D02*
Y77979D01*
X104100Y83600D02*
X104400D01*
X102500Y82000D02*
X104100Y83600D01*
X99820Y69870D02*
X100018D01*
X77408Y69100D02*
X79193Y69100D01*
X80110Y62800D02*
X81800D01*
X91434Y59800D02*
X93100D01*
X90000Y74500D02*
X90000D01*
X90000D02*
Y75993D01*
X109092Y97893D02*
X109600D01*
X94092Y97893D02*
X94900D01*
X93500Y103100D02*
Y103200D01*
X107000Y85500D02*
Y86958D01*
X107500Y80000D02*
Y81993D01*
X112950Y87100D02*
X113000Y87050D01*
X112025Y89300D02*
Y89300D01*
X59000Y79000D02*
Y81020D01*
X43000Y65600D02*
Y67334D01*
X37005Y74880D02*
Y75525D01*
Y74140D02*
Y74880D01*
Y69320D02*
Y70005D01*
X64000Y74017D02*
Y76500D01*
X101000Y78000D02*
X102268D01*
X31000Y75500D02*
Y77400D01*
X30900Y77500D02*
X31000Y77400D01*
X87000Y63000D02*
Y65050D01*
X86760Y65290D02*
X87000Y65050D01*
X91000Y89000D02*
X91000Y89000D01*
X97000D02*
X97000Y89000D01*
X92050Y78000D02*
Y78007D01*
X33195Y74880D02*
Y77212D01*
X30893Y77500D02*
X30900D01*
X99820Y69870D02*
X105560Y75610D01*
X104500Y78007D02*
X106550D01*
X106000Y89000D02*
Y89948D01*
X106744Y91744D02*
X109092Y94092D01*
X106672Y97893D02*
X109092D01*
X112000Y89000D02*
Y90133D01*
X109092Y94092D02*
Y97893D01*
Y97993D01*
Y94092D02*
X111256Y91929D01*
X107473Y99907D02*
X109600D01*
X107708Y107100D02*
X109766D01*
X110132Y100072D02*
Y106948D01*
X39190Y63005D02*
Y65150D01*
X64475Y65600D02*
X66893D01*
X33939Y61281D02*
X35154Y60066D01*
X36752Y59500D02*
X77400D01*
X33195Y63077D02*
Y69320D01*
X37005Y75525D02*
X38620D01*
X95500Y54600D02*
Y59665D01*
X95465Y59750D02*
Y60500D01*
X93000Y80000D02*
Y82000D01*
X90050Y84950D02*
Y87000D01*
X93292Y82000D02*
Y84160D01*
X95832Y86700D02*
X95867D01*
X62525Y65600D02*
Y68725D01*
X81207Y67430D02*
Y69100D01*
X106993Y86958D02*
X107000D01*
X98869Y59800D02*
Y60247D01*
X99000Y54600D02*
Y59484D01*
X99613Y62043D02*
X99820Y62250D01*
X90000Y78007D02*
X92050D01*
X91000Y89000D02*
Y89948D01*
X91744Y91744D02*
X94092Y94092D01*
X91973Y97893D02*
X94092D01*
X97000Y89000D02*
Y90133D01*
X94092Y94092D02*
Y97893D01*
Y94092D02*
X96256Y91929D01*
X94900Y97992D02*
X95075D01*
X92772Y99908D02*
X94900D01*
X92908Y107100D02*
X94711D01*
X95163Y100542D02*
Y106942D01*
Y106948D01*
X89000Y63000D02*
Y64967D01*
X92000Y85500D02*
Y86879D01*
X101250Y59900D02*
X102700D01*
X94000Y76100D02*
Y77879D01*
X113000Y85300D02*
Y87050D01*
X35735Y69320D02*
Y70567D01*
X38000Y79500D02*
Y80750D01*
X42000Y79500D02*
Y80850D01*
X41900Y80950D02*
X41900Y80950D01*
X29600Y82400D02*
X31514D01*
X29600Y85000D02*
X31514D01*
X45900Y80950D02*
X45900Y80950D01*
X49500Y79500D02*
Y80750D01*
X54000Y79300D02*
Y80920D01*
X46000Y79500D02*
Y80850D01*
X49700Y80950D02*
X49900Y80750D01*
X68800Y73886D02*
Y76500D01*
X54100Y81020D02*
X54100Y81020D01*
X59100Y80920D02*
X59100D01*
X59000Y81020D02*
X59000D01*
X71600Y61200D02*
X74900D01*
X68907Y65600D02*
X70600D01*
X93500Y103200D02*
Y104751D01*
X108200Y103200D02*
Y104651D01*
X97950Y86586D02*
Y87000D01*
X95727Y83727D02*
X97500Y85500D01*
X111050Y86545D02*
Y87000D01*
X107866Y82866D02*
X110700Y85700D01*
X107507Y82000D02*
Y82405D01*
X106858Y82634D02*
X107500Y81993D01*
D41*
X94740Y67140D02*
G03*
X97280Y69680I0J2540D01*
G01*
X99820Y82000D02*
G03*
X97280Y79460I0J-2540D01*
G01*
X34572Y80216D02*
G03*
X35200Y78700I2144J0D01*
G01*
X35735Y77408D02*
G03*
X35200Y78700I-1827J0D01*
G01*
X97280Y79728D02*
G03*
X95015Y82007I-2280J0D01*
G01*
X79000Y67234D02*
X81300Y67206D01*
X82295Y67194D02*
X86760Y67140D01*
X102500Y82000D02*
X105493D01*
X97280Y69680D02*
Y69870D01*
X81300Y67206D02*
X82295Y67194D01*
X86760Y66980D02*
X89140D01*
X81300Y67206D02*
X81300D01*
X88800Y67140D02*
X94740D01*
X97280Y69870D02*
Y79460D01*
Y79728D01*
X99820Y82000D02*
X102500D01*
X34572Y80216D02*
Y82376D01*
X35735Y74880D02*
Y77408D01*
D42*
X34465Y67078D02*
G03*
X35100Y65545I2168J0D01*
G01*
Y65300D02*
X35105Y65305D01*
X34465Y67078D02*
Y69320D01*
X35105Y65305D02*
X37193D01*
D43*
X45900Y80950D02*
D03*
X54100Y81020D02*
D03*
D44*
X112392Y113400D02*
D03*
X97423Y113400D02*
D03*
D45*
X114653Y106948D02*
D03*
X110132D02*
D03*
X99684Y106948D02*
D03*
X95163D02*
D03*
D46*
X112000Y89000D02*
D03*
X112950Y87000D02*
D03*
X111050D02*
D03*
X107500Y80000D02*
D03*
X108450Y78000D02*
D03*
X106550D02*
D03*
X106000Y89000D02*
D03*
X106950Y87000D02*
D03*
X105050D02*
D03*
X91000Y89000D02*
D03*
X91950Y87000D02*
D03*
X90050D02*
D03*
X93000Y80000D02*
D03*
X93950Y78000D02*
D03*
X92050D02*
D03*
X97000Y89000D02*
D03*
X97950Y87000D02*
D03*
X96050D02*
D03*
D47*
X106200Y97420D02*
D03*
Y101180D02*
D03*
X91500Y97420D02*
D03*
Y101180D02*
D03*
X54100Y84780D02*
D03*
Y81020D02*
D03*
X59000Y84780D02*
D03*
Y81020D02*
D03*
D48*
X62525Y65600D02*
D03*
X64475D02*
D03*
D49*
X42900Y74125D02*
D03*
Y67475D02*
D03*
D50*
X102493Y78000D02*
D03*
X104507D02*
D03*
X107507Y82000D02*
D03*
X105493D02*
D03*
X100884Y59800D02*
D03*
X98869D02*
D03*
X93450Y59750D02*
D03*
X95465D02*
D03*
X92992Y82000D02*
D03*
X95008D02*
D03*
X39208Y65405D02*
D03*
X37193D02*
D03*
X75393Y69100D02*
D03*
X77408D02*
D03*
X30893Y77500D02*
D03*
X32908D02*
D03*
X68907Y65523D02*
D03*
X66893D02*
D03*
X79193Y69100D02*
D03*
X81207D02*
D03*
D51*
X108100Y104992D02*
D03*
Y107008D02*
D03*
X109600Y97893D02*
D03*
Y99907D02*
D03*
X93400Y104992D02*
D03*
Y107008D02*
D03*
X90000Y75993D02*
D03*
Y78007D02*
D03*
X94900Y97893D02*
D03*
Y99908D02*
D03*
D52*
X59250Y70950D02*
D03*
X48150D02*
D03*
D53*
X37005Y69320D02*
D03*
X35735D02*
D03*
X34465D02*
D03*
X33195D02*
D03*
Y74880D02*
D03*
X34465D02*
D03*
X35735D02*
D03*
X37005D02*
D03*
D54*
X35100Y72100D02*
D03*
D55*
X86760Y67140D02*
D03*
Y65450D02*
D03*
X35100Y63855D02*
D03*
Y65545D02*
D03*
X88800Y65450D02*
D03*
Y67140D02*
D03*
D56*
X39090Y63105D02*
D03*
X37400D02*
D03*
D57*
X49700Y85250D02*
D03*
Y80950D02*
D03*
X45900Y85250D02*
D03*
Y80950D02*
D03*
X41900Y85250D02*
D03*
Y80950D02*
D03*
X37800Y85250D02*
D03*
Y80950D02*
D03*
X79000Y62925D02*
D03*
Y67225D02*
D03*
D58*
X74500Y61789D02*
D03*
Y66361D02*
D03*
X68900Y73786D02*
D03*
Y69214D02*
D03*
X63925Y73836D02*
D03*
Y69264D02*
D03*
D59*
X38620Y74500D02*
D03*
Y75525D02*
D03*
D60*
X34572Y82376D02*
D03*
X31572D02*
D03*
X34572Y84976D02*
D03*
X31572D02*
D03*
D61*
X32500Y112300D02*
D03*
Y96750D02*
D03*
X97900Y121800D02*
D03*
X82900Y121800D02*
D03*
X112900D02*
D03*
D62*
X102500Y54600D02*
D03*
X99000D02*
D03*
X94740Y62250D02*
D03*
X97280D02*
D03*
X99820D02*
D03*
X92200Y69870D02*
D03*
X94740D02*
D03*
X97280D02*
D03*
X99820D02*
D03*
D63*
X95500Y54600D02*
D03*
D64*
X92200Y62250D02*
D03*
D65*
X65000Y104250D02*
D03*
Y96750D02*
D03*
X47500Y114050D02*
D03*
Y121550D02*
D03*
X47700Y104250D02*
D03*
Y96750D02*
D03*
X65000Y114250D02*
D03*
Y121750D02*
D03*
D66*
X77400Y59500D02*
D03*
X71600Y61200D02*
D03*
X37400Y61000D02*
D03*
X73900Y69100D02*
D03*
X77400Y70800D02*
D03*
X108500Y76100D02*
D03*
X104400Y83600D02*
D03*
X68800Y76500D02*
D03*
X81800Y62800D02*
D03*
X91200Y59700D02*
D03*
X102650Y59950D02*
D03*
X90000Y74500D02*
D03*
X107000Y85500D02*
D03*
X113000Y85300D02*
D03*
X38000Y79500D02*
D03*
X42000D02*
D03*
X46000D02*
D03*
X49500D02*
D03*
X54000Y79300D02*
D03*
X59000Y79000D02*
D03*
X70700Y65500D02*
D03*
X93500Y103200D02*
D03*
X108200D02*
D03*
X92000Y85500D02*
D03*
X64000Y76500D02*
D03*
X94000Y76100D02*
D03*
X101000Y78000D02*
D03*
X29600Y85000D02*
D03*
Y82400D02*
D03*
X31000Y75500D02*
D03*
X35400Y62100D02*
D03*
X87000Y63000D02*
D03*
X89000D02*
D03*
X43000Y65600D02*
D03*
D67*
X35100Y72800D02*
D03*
X36200D02*
D03*
X34000D02*
D03*
X99750Y105250D02*
D03*
X98000Y107000D02*
D03*
X101250D02*
D03*
X36200Y71400D02*
D03*
X35100D02*
D03*
X34000D02*
D03*
X98200Y106200D02*
D03*
X98800Y105400D02*
D03*
X100600D02*
D03*
X101200Y106200D02*
D03*
X116169Y106200D02*
D03*
X115569Y105400D02*
D03*
X113769D02*
D03*
X113169Y106200D02*
D03*
X116219Y107000D02*
D03*
X112969D02*
D03*
X114719Y105250D02*
D03*
X98184Y93148D02*
D03*
X98784Y93948D02*
D03*
X100584Y93948D02*
D03*
X101184Y93148D02*
D03*
X98134Y92348D02*
D03*
X101384Y92348D02*
D03*
X99634Y94098D02*
D03*
X113084Y93048D02*
D03*
X113684Y93848D02*
D03*
X115484Y93848D02*
D03*
X116084Y93048D02*
D03*
X113034Y92248D02*
D03*
X116284Y92248D02*
D03*
X114534Y93998D02*
D03*
M02*
