G04*
G04 #@! TF.GenerationSoftware,Altium Limited,Altium Designer,22.7.1 (60)*
G04*
G04 Layer_Color=16711935*
%FSLAX43Y43*%
%MOMM*%
G71*
G04*
G04 #@! TF.SameCoordinates,B0B9643B-9B23-428C-A4AC-A12B4A47BFEC*
G04*
G04*
G04 #@! TF.FilePolarity,Negative*
G04*
G01*
G75*
G04:AMPARAMS|DCode=23|XSize=1.733mm|YSize=1.223mm|CornerRadius=0.229mm|HoleSize=0mm|Usage=FLASHONLY|Rotation=90.000|XOffset=0mm|YOffset=0mm|HoleType=Round|Shape=RoundedRectangle|*
%AMROUNDEDRECTD23*
21,1,1.733,0.765,0,0,90.0*
21,1,1.275,1.223,0,0,90.0*
1,1,0.458,0.383,0.638*
1,1,0.458,0.383,-0.638*
1,1,0.458,-0.383,-0.638*
1,1,0.458,-0.383,0.638*
%
%ADD23ROUNDEDRECTD23*%
%ADD34C,6.203*%
%ADD35C,1.903*%
%ADD36R,1.903X1.903*%
%ADD37R,1.903X1.903*%
%ADD38C,2.403*%
G04:AMPARAMS|DCode=69|XSize=1.403mm|YSize=2.033mm|CornerRadius=0.252mm|HoleSize=0mm|Usage=FLASHONLY|Rotation=90.000|XOffset=0mm|YOffset=0mm|HoleType=Round|Shape=RoundedRectangle|*
%AMROUNDEDRECTD69*
21,1,1.403,1.530,0,0,90.0*
21,1,0.900,2.033,0,0,90.0*
1,1,0.503,0.765,0.450*
1,1,0.503,0.765,-0.450*
1,1,0.503,-0.765,-0.450*
1,1,0.503,-0.765,0.450*
%
%ADD69ROUNDEDRECTD69*%
D23*
X86008Y83400D02*
D03*
X83992D02*
D03*
D34*
X32500Y112300D02*
D03*
Y96750D02*
D03*
X97900Y121800D02*
D03*
X82900Y121800D02*
D03*
X112900D02*
D03*
D35*
X102500Y54600D02*
D03*
X99000D02*
D03*
X94740Y62250D02*
D03*
X97280D02*
D03*
X99820D02*
D03*
X92200Y69870D02*
D03*
X94740D02*
D03*
X97280D02*
D03*
X99820D02*
D03*
D36*
X95500Y54600D02*
D03*
D37*
X92200Y62250D02*
D03*
D38*
X65000Y104250D02*
D03*
Y96750D02*
D03*
X47500Y114050D02*
D03*
Y121550D02*
D03*
X47700Y104250D02*
D03*
Y96750D02*
D03*
X65000Y114250D02*
D03*
Y121750D02*
D03*
D69*
X99684Y92000D02*
D03*
Y89000D02*
D03*
X114653Y92000D02*
D03*
Y89000D02*
D03*
M02*
