G04*
G04 #@! TF.GenerationSoftware,Altium Limited,Altium Designer,22.7.1 (60)*
G04*
G04 Layer_Color=32896*
%FSLAX43Y43*%
%MOMM*%
G71*
G04*
G04 #@! TF.SameCoordinates,B0B9643B-9B23-428C-A4AC-A12B4A47BFEC*
G04*
G04*
G04 #@! TF.FilePolarity,Positive*
G04*
G01*
G75*
%ADD10C,0.200*%
%ADD70R,17.075X5.334*%
G36*
X59948Y67496D02*
X59970Y67485D01*
X59984Y67468D01*
X59995Y67452D01*
X60000Y67432D01*
X60003Y67416D01*
X60006Y67405D01*
Y67399D01*
Y65692D01*
X60003Y65661D01*
X59992Y65639D01*
X59978Y65622D01*
X59959Y65611D01*
X59942Y65606D01*
X59928Y65603D01*
X59917Y65600D01*
X59914D01*
X59884Y65603D01*
X59859Y65614D01*
X59842Y65628D01*
X59831Y65647D01*
X59826Y65664D01*
X59820Y65678D01*
Y65689D01*
Y65692D01*
Y67138D01*
X59470Y66497D01*
X59456Y66480D01*
X59442Y66466D01*
X59431Y66458D01*
X59417Y66450D01*
X59406Y66447D01*
X59398Y66444D01*
X59390D01*
X59373Y66447D01*
X59356Y66452D01*
X59331Y66472D01*
X59315Y66488D01*
X59312Y66494D01*
X59309Y66497D01*
X58957Y67138D01*
Y65692D01*
X58954Y65661D01*
X58943Y65639D01*
X58929Y65622D01*
X58909Y65611D01*
X58893Y65606D01*
X58879Y65603D01*
X58868Y65600D01*
X58865D01*
X58834Y65603D01*
X58809Y65614D01*
X58793Y65628D01*
X58782Y65647D01*
X58776Y65664D01*
X58771Y65678D01*
Y65689D01*
Y65692D01*
Y67399D01*
X58773Y67432D01*
X58784Y67457D01*
X58798Y67477D01*
X58815Y67488D01*
X58832Y67496D01*
X58846Y67499D01*
X58857Y67502D01*
X58859D01*
X58879Y67499D01*
X58896Y67493D01*
X58923Y67474D01*
X58932Y67463D01*
X58940Y67455D01*
X58943Y67449D01*
X58946Y67446D01*
X59390Y66699D01*
X59834Y67446D01*
X59848Y67466D01*
X59862Y67479D01*
X59876Y67488D01*
X59889Y67496D01*
X59901Y67499D01*
X59912Y67502D01*
X59920D01*
X59948Y67496D01*
D02*
G37*
G36*
X65739Y67488D02*
X65761Y67477D01*
X65778Y67463D01*
X65789Y67446D01*
X65794Y67427D01*
X65797Y67413D01*
X65800Y67402D01*
Y67399D01*
Y65692D01*
X65797Y65661D01*
X65786Y65639D01*
X65772Y65622D01*
X65753Y65611D01*
X65736Y65606D01*
X65722Y65603D01*
X65711Y65600D01*
X65184D01*
X65153Y65603D01*
X65128Y65614D01*
X65112Y65628D01*
X65100Y65647D01*
X65095Y65664D01*
X65089Y65678D01*
Y65689D01*
Y65692D01*
X65092Y65722D01*
X65103Y65744D01*
X65120Y65761D01*
X65136Y65772D01*
X65153Y65778D01*
X65170Y65783D01*
X65614D01*
Y67399D01*
X65617Y67430D01*
X65628Y67452D01*
X65645Y67468D01*
X65661Y67479D01*
X65678Y67485D01*
X65695Y67491D01*
X65708D01*
X65739Y67488D01*
D02*
G37*
G36*
X64354D02*
X64373Y67479D01*
X64387Y67466D01*
X64398Y67452D01*
X64406Y67435D01*
X64412Y67424D01*
X64417Y67413D01*
Y67410D01*
X64878Y65700D01*
X64881D01*
Y65694D01*
Y65692D01*
Y65689D01*
X64878Y65658D01*
X64867Y65639D01*
X64851Y65622D01*
X64834Y65611D01*
X64817Y65606D01*
X64801Y65603D01*
X64789Y65600D01*
X64787D01*
X64762Y65603D01*
X64742Y65611D01*
X64728Y65622D01*
X64717Y65633D01*
X64709Y65644D01*
X64701Y65656D01*
X64698Y65664D01*
Y65667D01*
X64576Y66127D01*
X64082D01*
X63959Y65667D01*
X63951Y65644D01*
X63937Y65628D01*
X63923Y65617D01*
X63907Y65608D01*
X63893Y65603D01*
X63882Y65600D01*
X63871D01*
X63840Y65603D01*
X63815Y65614D01*
X63798Y65628D01*
X63787Y65644D01*
X63782Y65661D01*
X63776Y65675D01*
Y65686D01*
Y65689D01*
Y65708D01*
X63779Y65714D01*
Y65717D01*
X64240Y67410D01*
X64248Y67438D01*
X64262Y67457D01*
X64276Y67471D01*
X64293Y67479D01*
X64306Y67488D01*
X64317Y67491D01*
X64329D01*
X64354Y67488D01*
D02*
G37*
G36*
X63501D02*
X63523Y67477D01*
X63540Y67463D01*
X63551Y67446D01*
X63557Y67427D01*
X63560Y67413D01*
X63562Y67402D01*
Y67399D01*
Y65692D01*
X63560Y65661D01*
X63548Y65639D01*
X63535Y65622D01*
X63515Y65611D01*
X63499Y65606D01*
X63485Y65603D01*
X63474Y65600D01*
X63010D01*
X62979Y65603D01*
X62949Y65606D01*
X62893Y65619D01*
X62841Y65639D01*
X62799Y65664D01*
X62763Y65686D01*
X62735Y65705D01*
X62718Y65719D01*
X62716Y65725D01*
X62713D01*
X62691Y65750D01*
X62671Y65775D01*
X62638Y65825D01*
X62616Y65875D01*
X62602Y65919D01*
X62591Y65961D01*
X62588Y65991D01*
X62585Y66003D01*
Y66011D01*
Y66016D01*
Y66019D01*
Y66283D01*
X62588Y66325D01*
X62596Y66366D01*
X62605Y66402D01*
X62616Y66436D01*
X62630Y66461D01*
X62638Y66483D01*
X62646Y66494D01*
X62649Y66499D01*
X62674Y66536D01*
X62699Y66563D01*
X62724Y66588D01*
X62749Y66605D01*
X62768Y66619D01*
X62785Y66630D01*
X62799Y66633D01*
X62802Y66636D01*
X62774Y66658D01*
X62752Y66680D01*
X62732Y66702D01*
X62716Y66727D01*
X62688Y66780D01*
X62671Y66827D01*
X62660Y66872D01*
X62657Y66891D01*
X62655Y66908D01*
X62652Y66921D01*
Y66933D01*
Y66938D01*
Y66941D01*
Y67071D01*
Y67102D01*
X62657Y67132D01*
X62671Y67191D01*
X62691Y67241D01*
X62713Y67282D01*
X62738Y67318D01*
X62757Y67343D01*
X62771Y67360D01*
X62774Y67366D01*
X62777D01*
X62802Y67388D01*
X62827Y67407D01*
X62877Y67438D01*
X62927Y67460D01*
X62974Y67474D01*
X63015Y67485D01*
X63032Y67488D01*
X63046D01*
X63060Y67491D01*
X63471D01*
X63501Y67488D01*
D02*
G37*
G36*
X60797D02*
X60817Y67479D01*
X60831Y67466D01*
X60842Y67452D01*
X60850Y67435D01*
X60856Y67424D01*
X60861Y67413D01*
Y67410D01*
X61322Y65700D01*
X61325D01*
Y65694D01*
Y65692D01*
Y65689D01*
X61322Y65658D01*
X61311Y65639D01*
X61294Y65622D01*
X61278Y65611D01*
X61261Y65606D01*
X61244Y65603D01*
X61233Y65600D01*
X61230D01*
X61205Y65603D01*
X61186Y65611D01*
X61172Y65622D01*
X61161Y65633D01*
X61153Y65644D01*
X61144Y65656D01*
X61141Y65664D01*
Y65667D01*
X61019Y66127D01*
X60525D01*
X60403Y65667D01*
X60395Y65644D01*
X60381Y65628D01*
X60367Y65617D01*
X60350Y65608D01*
X60336Y65603D01*
X60325Y65600D01*
X60314D01*
X60284Y65603D01*
X60259Y65614D01*
X60242Y65628D01*
X60231Y65644D01*
X60225Y65661D01*
X60220Y65675D01*
Y65686D01*
Y65689D01*
Y65708D01*
X60223Y65714D01*
Y65717D01*
X60683Y67410D01*
X60692Y67438D01*
X60706Y67457D01*
X60720Y67471D01*
X60736Y67479D01*
X60750Y67488D01*
X60761Y67491D01*
X60772D01*
X60797Y67488D01*
D02*
G37*
G36*
X58499D02*
X58521Y67477D01*
X58537Y67463D01*
X58549Y67446D01*
X58554Y67427D01*
X58557Y67413D01*
X58560Y67402D01*
Y67399D01*
Y65692D01*
X58557Y65661D01*
X58546Y65639D01*
X58532Y65622D01*
X58512Y65611D01*
X58496Y65606D01*
X58482Y65603D01*
X58471Y65600D01*
X58468D01*
X58437Y65603D01*
X58412Y65614D01*
X58396Y65628D01*
X58385Y65647D01*
X58379Y65664D01*
X58374Y65678D01*
Y65689D01*
Y65692D01*
Y66391D01*
X58007D01*
X57974Y66394D01*
X57943Y66397D01*
X57888Y66411D01*
X57835Y66430D01*
X57791Y66452D01*
X57757Y66475D01*
X57730Y66494D01*
X57713Y66508D01*
X57707Y66513D01*
X57685Y66536D01*
X57666Y66561D01*
X57635Y66611D01*
X57613Y66661D01*
X57599Y66708D01*
X57588Y66747D01*
X57585Y66780D01*
X57582Y66791D01*
Y66799D01*
Y66805D01*
Y66808D01*
Y67071D01*
Y67102D01*
X57588Y67132D01*
X57602Y67191D01*
X57621Y67241D01*
X57643Y67282D01*
X57668Y67318D01*
X57688Y67343D01*
X57702Y67360D01*
X57705Y67366D01*
X57707D01*
X57732Y67388D01*
X57757Y67407D01*
X57807Y67438D01*
X57857Y67460D01*
X57904Y67474D01*
X57946Y67485D01*
X57963Y67488D01*
X57977D01*
X57990Y67491D01*
X58468D01*
X58499Y67488D01*
D02*
G37*
G36*
X57313D02*
X57335Y67477D01*
X57352Y67463D01*
X57363Y67446D01*
X57369Y67427D01*
X57371Y67413D01*
X57374Y67402D01*
Y67399D01*
Y65692D01*
X57371Y65661D01*
X57360Y65639D01*
X57346Y65622D01*
X57327Y65611D01*
X57310Y65606D01*
X57296Y65603D01*
X57285Y65600D01*
X56758D01*
X56727Y65603D01*
X56702Y65614D01*
X56686Y65628D01*
X56675Y65647D01*
X56669Y65664D01*
X56663Y65678D01*
Y65689D01*
Y65692D01*
X56666Y65722D01*
X56677Y65744D01*
X56694Y65761D01*
X56711Y65772D01*
X56727Y65778D01*
X56744Y65783D01*
X57188D01*
Y67399D01*
X57191Y67430D01*
X57202Y67452D01*
X57219Y67468D01*
X57235Y67479D01*
X57252Y67485D01*
X57269Y67491D01*
X57283D01*
X57313Y67488D01*
D02*
G37*
G36*
X56391D02*
X56414Y67477D01*
X56430Y67463D01*
X56441Y67446D01*
X56447Y67427D01*
X56450Y67413D01*
X56452Y67402D01*
Y67399D01*
Y65692D01*
X56450Y65661D01*
X56439Y65639D01*
X56425Y65622D01*
X56405Y65611D01*
X56389Y65606D01*
X56375Y65603D01*
X56364Y65600D01*
X56361D01*
X56330Y65603D01*
X56305Y65614D01*
X56289Y65628D01*
X56278Y65647D01*
X56272Y65664D01*
X56266Y65678D01*
Y65689D01*
Y65692D01*
Y67399D01*
X56269Y67430D01*
X56280Y67452D01*
X56297Y67468D01*
X56314Y67479D01*
X56330Y67485D01*
X56347Y67491D01*
X56361D01*
X56391Y67488D01*
D02*
G37*
G36*
X55994D02*
X56017Y67477D01*
X56033Y67463D01*
X56044Y67446D01*
X56050Y67427D01*
X56053Y67413D01*
X56055Y67402D01*
Y67399D01*
Y65692D01*
X56053Y65661D01*
X56042Y65639D01*
X56028Y65622D01*
X56008Y65611D01*
X55992Y65606D01*
X55978Y65603D01*
X55967Y65600D01*
X55964D01*
X55933Y65603D01*
X55908Y65614D01*
X55892Y65628D01*
X55881Y65647D01*
X55875Y65664D01*
X55869Y65678D01*
Y65689D01*
Y65692D01*
Y66519D01*
X55309D01*
X55278Y66522D01*
X55253Y66533D01*
X55236Y66547D01*
X55225Y66566D01*
X55220Y66583D01*
X55214Y66597D01*
Y66608D01*
Y66611D01*
X55217Y66641D01*
X55228Y66663D01*
X55245Y66680D01*
X55261Y66691D01*
X55278Y66697D01*
X55295Y66702D01*
X55869D01*
Y67307D01*
X55309D01*
X55278Y67310D01*
X55253Y67321D01*
X55236Y67335D01*
X55225Y67355D01*
X55220Y67371D01*
X55214Y67385D01*
Y67396D01*
Y67399D01*
X55217Y67430D01*
X55228Y67452D01*
X55245Y67468D01*
X55261Y67479D01*
X55278Y67485D01*
X55295Y67491D01*
X55964D01*
X55994Y67488D01*
D02*
G37*
G36*
X54939D02*
X54962Y67477D01*
X54978Y67463D01*
X54989Y67446D01*
X54995Y67427D01*
X54998Y67413D01*
X55000Y67402D01*
Y67399D01*
Y65692D01*
X54998Y65661D01*
X54987Y65639D01*
X54973Y65622D01*
X54953Y65611D01*
X54937Y65606D01*
X54923Y65603D01*
X54912Y65600D01*
X54909D01*
X54878Y65603D01*
X54853Y65614D01*
X54837Y65628D01*
X54826Y65647D01*
X54820Y65664D01*
X54814Y65678D01*
Y65689D01*
Y65692D01*
Y67399D01*
X54817Y67430D01*
X54828Y67452D01*
X54845Y67468D01*
X54862Y67479D01*
X54878Y67485D01*
X54895Y67491D01*
X54909D01*
X54939Y67488D01*
D02*
G37*
G36*
X54540D02*
X54562Y67477D01*
X54579Y67463D01*
X54590Y67446D01*
X54595Y67427D01*
X54598Y67413D01*
X54601Y67402D01*
Y67399D01*
Y65692D01*
X54598Y65661D01*
X54587Y65639D01*
X54573Y65622D01*
X54554Y65611D01*
X54537Y65606D01*
X54523Y65603D01*
X54512Y65600D01*
X53854D01*
X53823Y65603D01*
X53798Y65614D01*
X53782Y65628D01*
X53771Y65647D01*
X53765Y65664D01*
X53760Y65678D01*
Y65689D01*
Y65692D01*
X53762Y65722D01*
X53773Y65744D01*
X53790Y65761D01*
X53807Y65772D01*
X53823Y65778D01*
X53840Y65783D01*
X54415D01*
Y66519D01*
X54115D01*
X54084Y66522D01*
X54062Y66533D01*
X54045Y66547D01*
X54034Y66566D01*
X54029Y66583D01*
X54023Y66597D01*
Y66608D01*
Y66611D01*
X54026Y66641D01*
X54037Y66663D01*
X54051Y66680D01*
X54068Y66691D01*
X54087Y66697D01*
X54101Y66702D01*
X54415D01*
Y67307D01*
X53854D01*
X53823Y67310D01*
X53798Y67321D01*
X53782Y67335D01*
X53771Y67355D01*
X53765Y67371D01*
X53760Y67385D01*
Y67396D01*
Y67399D01*
X53762Y67430D01*
X53773Y67452D01*
X53790Y67468D01*
X53807Y67479D01*
X53823Y67485D01*
X53840Y67491D01*
X54509D01*
X54540Y67488D01*
D02*
G37*
G36*
X53487D02*
X53510Y67477D01*
X53526Y67463D01*
X53537Y67446D01*
X53543Y67427D01*
X53546Y67413D01*
X53549Y67402D01*
Y67399D01*
Y65692D01*
X53546Y65661D01*
X53535Y65639D01*
X53521Y65622D01*
X53501Y65611D01*
X53485Y65606D01*
X53471Y65603D01*
X53460Y65600D01*
X53457D01*
X53426Y65603D01*
X53401Y65614D01*
X53385Y65628D01*
X53374Y65647D01*
X53368Y65664D01*
X53363Y65678D01*
Y65689D01*
Y65692D01*
Y66391D01*
X53182D01*
X52749Y65675D01*
X52738Y65650D01*
X52724Y65631D01*
X52710Y65619D01*
X52696Y65608D01*
X52685Y65603D01*
X52677Y65600D01*
X52668D01*
X52641Y65603D01*
X52621Y65614D01*
X52607Y65622D01*
X52602Y65625D01*
X52591Y65636D01*
X52585Y65647D01*
X52574Y65669D01*
X52571Y65686D01*
Y65689D01*
Y65692D01*
X52574Y65708D01*
X52577Y65722D01*
X52582Y65733D01*
X52585Y65736D01*
X52985Y66391D01*
X52927Y66397D01*
X52874Y66411D01*
X52824Y66427D01*
X52782Y66450D01*
X52749Y66472D01*
X52721Y66488D01*
X52705Y66502D01*
X52699Y66508D01*
X52677Y66530D01*
X52657Y66555D01*
X52624Y66605D01*
X52602Y66655D01*
X52588Y66702D01*
X52577Y66747D01*
X52574Y66763D01*
Y66780D01*
X52571Y66794D01*
Y66802D01*
Y66808D01*
Y66810D01*
Y67071D01*
Y67102D01*
X52577Y67132D01*
X52591Y67191D01*
X52610Y67241D01*
X52632Y67282D01*
X52657Y67318D01*
X52677Y67343D01*
X52691Y67360D01*
X52693Y67366D01*
X52696D01*
X52721Y67388D01*
X52746Y67407D01*
X52796Y67438D01*
X52846Y67460D01*
X52893Y67474D01*
X52935Y67485D01*
X52952Y67488D01*
X52966D01*
X52979Y67491D01*
X53457D01*
X53487Y67488D01*
D02*
G37*
G36*
X62507Y65339D02*
X61402D01*
Y65522D01*
X62507D01*
Y65339D01*
D02*
G37*
G36*
X87584Y83954D02*
X87606Y83952D01*
X87626Y83945D01*
X87646Y83937D01*
X87681Y83919D01*
X87696Y83909D01*
X87710Y83898D01*
X87723Y83887D01*
X87734Y83877D01*
X87744Y83867D01*
X87753Y83859D01*
X87758Y83851D01*
X87763Y83846D01*
X87765Y83842D01*
X87767Y83840D01*
X87781Y83818D01*
X87792Y83791D01*
X87804Y83763D01*
X87812Y83733D01*
X87826Y83671D01*
X87836Y83609D01*
X87839Y83579D01*
X87842Y83553D01*
X87843Y83529D01*
X87844Y83506D01*
X87846Y83489D01*
Y83475D01*
Y83467D01*
Y83465D01*
Y83464D01*
X87844Y83417D01*
X87843Y83374D01*
X87839Y83334D01*
X87835Y83297D01*
X87827Y83264D01*
X87822Y83234D01*
X87815Y83206D01*
X87808Y83182D01*
X87801Y83161D01*
X87794Y83144D01*
X87787Y83128D01*
X87781Y83116D01*
X87777Y83107D01*
X87773Y83100D01*
X87771Y83096D01*
X87770Y83094D01*
X87754Y83075D01*
X87739Y83058D01*
X87723Y83044D01*
X87706Y83031D01*
X87691Y83020D01*
X87674Y83011D01*
X87658Y83004D01*
X87643Y82999D01*
X87616Y82990D01*
X87605Y82987D01*
X87595Y82986D01*
X87586D01*
X87581Y82984D01*
X87575D01*
X87555Y82986D01*
X87537Y82989D01*
X87519Y82993D01*
X87502Y82997D01*
X87471Y83011D01*
X87445Y83027D01*
X87424Y83042D01*
X87416Y83049D01*
X87409Y83056D01*
X87403Y83061D01*
X87399Y83065D01*
X87398Y83068D01*
X87396Y83069D01*
X87383Y83086D01*
X87372Y83104D01*
X87362Y83123D01*
X87354Y83142D01*
X87341Y83182D01*
X87331Y83218D01*
X87328Y83237D01*
X87327Y83252D01*
X87326Y83268D01*
X87324Y83281D01*
X87323Y83290D01*
Y83297D01*
Y83303D01*
Y83304D01*
X87324Y83330D01*
X87326Y83355D01*
X87328Y83378D01*
X87334Y83400D01*
X87338Y83420D01*
X87344Y83438D01*
X87351Y83455D01*
X87357Y83471D01*
X87364Y83485D01*
X87369Y83498D01*
X87376Y83507D01*
X87381Y83516D01*
X87385Y83523D01*
X87389Y83527D01*
X87390Y83530D01*
X87392Y83531D01*
X87405Y83547D01*
X87419Y83560D01*
X87431Y83571D01*
X87445Y83581D01*
X87458Y83589D01*
X87472Y83596D01*
X87496Y83606D01*
X87519Y83613D01*
X87527Y83615D01*
X87536Y83616D01*
X87543Y83617D01*
X87551D01*
X87567Y83616D01*
X87581Y83615D01*
X87595Y83610D01*
X87606Y83608D01*
X87615Y83603D01*
X87623Y83599D01*
X87627Y83598D01*
X87629Y83596D01*
X87641Y83588D01*
X87653Y83578D01*
X87663Y83568D01*
X87672Y83558D01*
X87679Y83550D01*
X87685Y83543D01*
X87689Y83537D01*
X87691Y83536D01*
X87689Y83565D01*
X87687Y83592D01*
X87684Y83616D01*
X87681Y83637D01*
X87678Y83657D01*
X87674Y83675D01*
X87671Y83691D01*
X87667Y83705D01*
X87664Y83716D01*
X87661Y83726D01*
X87657Y83734D01*
X87656Y83740D01*
X87653Y83746D01*
X87651Y83749D01*
X87650Y83751D01*
X87637Y83770D01*
X87623Y83782D01*
X87610Y83792D01*
X87598Y83798D01*
X87586Y83802D01*
X87578Y83804D01*
X87571Y83805D01*
X87570D01*
X87557Y83804D01*
X87544Y83801D01*
X87534Y83795D01*
X87524Y83788D01*
X87509Y83771D01*
X87499Y83753D01*
X87491Y83733D01*
X87486Y83716D01*
X87485Y83709D01*
X87484Y83703D01*
Y83701D01*
Y83699D01*
X87338Y83719D01*
X87347Y83761D01*
X87357Y83796D01*
X87369Y83827D01*
X87382Y83853D01*
X87395Y83871D01*
X87405Y83885D01*
X87412Y83894D01*
X87414Y83897D01*
X87437Y83916D01*
X87462Y83930D01*
X87486Y83942D01*
X87510Y83949D01*
X87530Y83953D01*
X87547Y83954D01*
X87553Y83956D01*
X87561D01*
X87584Y83954D01*
D02*
G37*
G36*
X88600Y83000D02*
X88442D01*
Y83398D01*
X88391D01*
X88376Y83396D01*
X88362Y83395D01*
X88350Y83392D01*
X88342Y83390D01*
X88336Y83388D01*
X88334Y83386D01*
X88332D01*
X88322Y83382D01*
X88314Y83375D01*
X88300Y83362D01*
X88294Y83357D01*
X88290Y83351D01*
X88287Y83348D01*
X88286Y83347D01*
X88281Y83341D01*
X88276Y83333D01*
X88269Y83324D01*
X88263Y83314D01*
X88249Y83290D01*
X88235Y83266D01*
X88222Y83244D01*
X88217Y83234D01*
X88211Y83226D01*
X88207Y83218D01*
X88204Y83213D01*
X88201Y83209D01*
Y83207D01*
X88088Y83000D01*
X87898D01*
X87994Y83185D01*
X88004Y83204D01*
X88014Y83224D01*
X88023Y83241D01*
X88032Y83257D01*
X88040Y83271D01*
X88047Y83283D01*
X88060Y83304D01*
X88070Y83320D01*
X88078Y83331D01*
X88083Y83338D01*
X88084Y83340D01*
X88097Y83355D01*
X88111Y83371D01*
X88125Y83385D01*
X88138Y83396D01*
X88149Y83406D01*
X88159Y83413D01*
X88164Y83419D01*
X88167Y83420D01*
X88132Y83429D01*
X88102Y83440D01*
X88076Y83454D01*
X88054Y83469D01*
X88038Y83482D01*
X88025Y83493D01*
X88018Y83502D01*
X88015Y83503D01*
Y83505D01*
X87997Y83533D01*
X87983Y83562D01*
X87973Y83592D01*
X87967Y83620D01*
X87963Y83646D01*
X87961Y83657D01*
Y83667D01*
X87960Y83674D01*
Y83681D01*
Y83684D01*
Y83685D01*
X87961Y83718D01*
X87966Y83746D01*
X87971Y83773D01*
X87977Y83795D01*
X87984Y83812D01*
X87990Y83826D01*
X87994Y83835D01*
X87995Y83837D01*
X88009Y83860D01*
X88025Y83878D01*
X88039Y83894D01*
X88053Y83905D01*
X88066Y83915D01*
X88076Y83922D01*
X88083Y83925D01*
X88085Y83926D01*
X88097Y83930D01*
X88109Y83935D01*
X88138Y83942D01*
X88167Y83946D01*
X88197Y83950D01*
X88224Y83952D01*
X88236D01*
X88246Y83953D01*
X88600D01*
Y83000D01*
D02*
G37*
G36*
X112853Y92542D02*
X112456D01*
Y92491D01*
X112457Y92476D01*
X112458Y92462D01*
X112461Y92451D01*
X112463Y92442D01*
X112465Y92436D01*
X112467Y92434D01*
Y92432D01*
X112471Y92422D01*
X112478Y92414D01*
X112491Y92400D01*
X112496Y92394D01*
X112502Y92390D01*
X112505Y92387D01*
X112506Y92386D01*
X112512Y92381D01*
X112520Y92376D01*
X112529Y92369D01*
X112539Y92363D01*
X112563Y92349D01*
X112587Y92335D01*
X112609Y92322D01*
X112619Y92317D01*
X112628Y92311D01*
X112635Y92307D01*
X112640Y92304D01*
X112644Y92301D01*
X112646D01*
X112853Y92188D01*
Y91998D01*
X112668Y92094D01*
X112649Y92104D01*
X112629Y92114D01*
X112612Y92123D01*
X112597Y92132D01*
X112582Y92140D01*
X112570Y92147D01*
X112549Y92160D01*
X112533Y92170D01*
X112522Y92178D01*
X112515Y92183D01*
X112513Y92184D01*
X112498Y92197D01*
X112482Y92211D01*
X112468Y92225D01*
X112457Y92238D01*
X112447Y92249D01*
X112440Y92259D01*
X112434Y92264D01*
X112433Y92267D01*
X112425Y92232D01*
X112413Y92202D01*
X112399Y92176D01*
X112384Y92154D01*
X112371Y92138D01*
X112360Y92125D01*
X112351Y92118D01*
X112350Y92115D01*
X112348D01*
X112320Y92097D01*
X112291Y92083D01*
X112261Y92073D01*
X112233Y92067D01*
X112207Y92063D01*
X112196Y92061D01*
X112186D01*
X112179Y92060D01*
X112172D01*
X112169D01*
X112168D01*
X112136Y92061D01*
X112107Y92066D01*
X112081Y92071D01*
X112058Y92077D01*
X112041Y92084D01*
X112027Y92090D01*
X112019Y92094D01*
X112016Y92095D01*
X111993Y92109D01*
X111975Y92125D01*
X111959Y92139D01*
X111948Y92153D01*
X111938Y92166D01*
X111931Y92176D01*
X111928Y92183D01*
X111927Y92185D01*
X111923Y92197D01*
X111918Y92209D01*
X111911Y92238D01*
X111907Y92267D01*
X111903Y92297D01*
X111902Y92324D01*
Y92336D01*
X111900Y92346D01*
Y92700D01*
X112853D01*
Y92542D01*
D02*
G37*
G36*
X112284Y91867D02*
X112262Y91829D01*
X112238Y91796D01*
X112216Y91768D01*
X112206Y91756D01*
X112196Y91744D01*
X112186Y91734D01*
X112179Y91727D01*
X112172Y91720D01*
X112168Y91716D01*
X112165Y91713D01*
X112164Y91712D01*
X112853D01*
Y91561D01*
X111897D01*
Y91684D01*
X111928Y91695D01*
X111957Y91709D01*
X111982Y91725D01*
X112003Y91740D01*
X112021Y91754D01*
X112035Y91765D01*
X112044Y91774D01*
X112045Y91775D01*
X112047Y91777D01*
X112069Y91802D01*
X112088Y91826D01*
X112103Y91847D01*
X112116Y91867D01*
X112124Y91884D01*
X112131Y91895D01*
X112134Y91904D01*
X112136Y91905D01*
Y91906D01*
X112302D01*
X112284Y91867D01*
D02*
G37*
G36*
Y91259D02*
X112262Y91221D01*
X112238Y91189D01*
X112216Y91161D01*
X112206Y91148D01*
X112196Y91137D01*
X112186Y91127D01*
X112179Y91120D01*
X112172Y91113D01*
X112168Y91108D01*
X112165Y91106D01*
X112164Y91104D01*
X112853D01*
Y90953D01*
X111897D01*
Y91076D01*
X111928Y91087D01*
X111957Y91101D01*
X111982Y91117D01*
X112003Y91132D01*
X112021Y91147D01*
X112035Y91158D01*
X112044Y91166D01*
X112045Y91168D01*
X112047Y91169D01*
X112069Y91194D01*
X112088Y91218D01*
X112103Y91240D01*
X112116Y91259D01*
X112124Y91276D01*
X112131Y91288D01*
X112134Y91296D01*
X112136Y91297D01*
Y91299D01*
X112302D01*
X112284Y91259D01*
D02*
G37*
G36*
X97900Y92742D02*
X97502D01*
Y92691D01*
X97504Y92676D01*
X97505Y92662D01*
X97508Y92650D01*
X97510Y92642D01*
X97512Y92636D01*
X97514Y92634D01*
Y92632D01*
X97518Y92622D01*
X97525Y92614D01*
X97538Y92600D01*
X97543Y92594D01*
X97549Y92590D01*
X97552Y92587D01*
X97553Y92586D01*
X97559Y92581D01*
X97567Y92576D01*
X97576Y92569D01*
X97586Y92563D01*
X97610Y92549D01*
X97634Y92535D01*
X97656Y92522D01*
X97666Y92517D01*
X97674Y92511D01*
X97682Y92507D01*
X97687Y92504D01*
X97691Y92501D01*
X97693D01*
X97900Y92388D01*
Y92198D01*
X97715Y92294D01*
X97696Y92304D01*
X97676Y92314D01*
X97659Y92323D01*
X97643Y92332D01*
X97629Y92340D01*
X97617Y92347D01*
X97595Y92360D01*
X97580Y92370D01*
X97569Y92378D01*
X97562Y92383D01*
X97560Y92384D01*
X97545Y92397D01*
X97529Y92411D01*
X97515Y92425D01*
X97504Y92438D01*
X97494Y92449D01*
X97487Y92459D01*
X97481Y92464D01*
X97480Y92467D01*
X97471Y92432D01*
X97460Y92402D01*
X97446Y92376D01*
X97431Y92354D01*
X97418Y92338D01*
X97407Y92325D01*
X97398Y92318D01*
X97397Y92315D01*
X97395D01*
X97367Y92297D01*
X97338Y92283D01*
X97308Y92273D01*
X97280Y92267D01*
X97254Y92263D01*
X97243Y92261D01*
X97233D01*
X97226Y92260D01*
X97219D01*
X97216D01*
X97215D01*
X97182Y92261D01*
X97154Y92266D01*
X97127Y92271D01*
X97105Y92277D01*
X97088Y92284D01*
X97074Y92290D01*
X97065Y92294D01*
X97063Y92295D01*
X97040Y92309D01*
X97022Y92325D01*
X97006Y92339D01*
X96995Y92353D01*
X96985Y92366D01*
X96978Y92376D01*
X96975Y92383D01*
X96974Y92385D01*
X96970Y92397D01*
X96965Y92409D01*
X96958Y92438D01*
X96954Y92467D01*
X96950Y92497D01*
X96948Y92524D01*
Y92536D01*
X96947Y92546D01*
Y92900D01*
X97900D01*
Y92742D01*
D02*
G37*
G36*
X97330Y92067D02*
X97309Y92029D01*
X97285Y91996D01*
X97263Y91968D01*
X97253Y91955D01*
X97243Y91944D01*
X97233Y91934D01*
X97226Y91927D01*
X97219Y91920D01*
X97215Y91916D01*
X97212Y91913D01*
X97211Y91912D01*
X97900D01*
Y91761D01*
X96944D01*
Y91884D01*
X96975Y91895D01*
X97003Y91909D01*
X97029Y91924D01*
X97050Y91940D01*
X97068Y91954D01*
X97082Y91965D01*
X97091Y91974D01*
X97092Y91975D01*
X97094Y91977D01*
X97116Y92002D01*
X97135Y92026D01*
X97150Y92047D01*
X97163Y92067D01*
X97171Y92084D01*
X97178Y92095D01*
X97181Y92104D01*
X97182Y92105D01*
Y92106D01*
X97349D01*
X97330Y92067D01*
D02*
G37*
G36*
X97650Y91537D02*
X97673Y91535D01*
X97715Y91527D01*
X97734Y91521D01*
X97752Y91516D01*
X97767Y91509D01*
X97782Y91502D01*
X97794Y91495D01*
X97806Y91487D01*
X97815Y91482D01*
X97824Y91476D01*
X97830Y91472D01*
X97834Y91468D01*
X97837Y91466D01*
X97838Y91465D01*
X97852Y91451D01*
X97863Y91435D01*
X97873Y91420D01*
X97883Y91404D01*
X97897Y91373D01*
X97906Y91344D01*
X97911Y91318D01*
X97913Y91307D01*
X97914Y91297D01*
X97916Y91290D01*
Y91279D01*
X97914Y91252D01*
X97910Y91228D01*
X97904Y91206D01*
X97897Y91187D01*
X97892Y91172D01*
X97886Y91159D01*
X97882Y91152D01*
X97880Y91149D01*
X97866Y91128D01*
X97849Y91111D01*
X97832Y91096D01*
X97815Y91083D01*
X97800Y91072D01*
X97789Y91065D01*
X97780Y91060D01*
X97779Y91059D01*
X97777D01*
X97751Y91048D01*
X97724Y91039D01*
X97698Y91034D01*
X97673Y91029D01*
X97652Y91027D01*
X97643D01*
X97636Y91025D01*
X97629D01*
X97625D01*
X97622D01*
X97621D01*
X97590Y91027D01*
X97562Y91031D01*
X97538Y91036D01*
X97517Y91042D01*
X97500Y91048D01*
X97487Y91053D01*
X97480Y91058D01*
X97477Y91059D01*
X97456Y91073D01*
X97438Y91089D01*
X97422Y91105D01*
X97409Y91121D01*
X97398Y91136D01*
X97391Y91148D01*
X97387Y91156D01*
X97385Y91158D01*
Y91159D01*
X97374Y91142D01*
X97361Y91125D01*
X97349Y91113D01*
X97336Y91101D01*
X97325Y91091D01*
X97316Y91086D01*
X97311Y91081D01*
X97308Y91080D01*
X97288Y91070D01*
X97267Y91063D01*
X97247Y91058D01*
X97229Y91055D01*
X97212Y91052D01*
X97199Y91050D01*
X97191D01*
X97190D01*
X97188D01*
X97170D01*
X97151Y91053D01*
X97119Y91060D01*
X97089Y91070D01*
X97064Y91080D01*
X97044Y91091D01*
X97036Y91097D01*
X97029Y91101D01*
X97023Y91105D01*
X97019Y91108D01*
X97018Y91110D01*
X97016Y91111D01*
X97003Y91122D01*
X96992Y91135D01*
X96982Y91149D01*
X96974Y91163D01*
X96961Y91191D01*
X96953Y91220D01*
X96948Y91245D01*
X96947Y91256D01*
X96946Y91266D01*
X96944Y91273D01*
Y91284D01*
X96946Y91304D01*
X96947Y91323D01*
X96954Y91356D01*
X96965Y91386D01*
X96978Y91410D01*
X96991Y91430D01*
X97001Y91444D01*
X97006Y91448D01*
X97009Y91452D01*
X97010Y91454D01*
X97012Y91455D01*
X97025Y91466D01*
X97039Y91476D01*
X97067Y91492D01*
X97096Y91503D01*
X97126Y91510D01*
X97150Y91516D01*
X97161Y91517D01*
X97171D01*
X97178Y91518D01*
X97184D01*
X97188D01*
X97190D01*
X97215Y91517D01*
X97237Y91514D01*
X97257Y91510D01*
X97274Y91504D01*
X97288Y91500D01*
X97299Y91496D01*
X97305Y91493D01*
X97308Y91492D01*
X97325Y91480D01*
X97340Y91466D01*
X97354Y91454D01*
X97366Y91440D01*
X97374Y91427D01*
X97380Y91417D01*
X97384Y91411D01*
X97385Y91409D01*
X97398Y91431D01*
X97414Y91451D01*
X97429Y91468D01*
X97445Y91480D01*
X97459Y91492D01*
X97470Y91500D01*
X97477Y91504D01*
X97479Y91506D01*
X97480D01*
X97504Y91517D01*
X97529Y91524D01*
X97553Y91530D01*
X97576Y91534D01*
X97597Y91537D01*
X97612Y91538D01*
X97618D01*
X97622D01*
X97625D01*
X97627D01*
X97650Y91537D01*
D02*
G37*
%LPC*%
G36*
X64329Y67121D02*
X64123Y66311D01*
X64534D01*
X64329Y67121D01*
D02*
G37*
G36*
X63376Y67307D02*
X63077D01*
X63040Y67305D01*
X63010Y67296D01*
X62982Y67285D01*
X62957Y67271D01*
X62938Y67257D01*
X62921Y67246D01*
X62913Y67238D01*
X62910Y67235D01*
X62885Y67207D01*
X62868Y67180D01*
X62854Y67152D01*
X62846Y67127D01*
X62841Y67105D01*
X62838Y67088D01*
Y67077D01*
Y67071D01*
Y66941D01*
X62841Y66905D01*
X62849Y66872D01*
X62860Y66844D01*
X62874Y66819D01*
X62888Y66799D01*
X62899Y66785D01*
X62907Y66774D01*
X62910Y66772D01*
X62938Y66749D01*
X62965Y66733D01*
X62993Y66719D01*
X63018Y66710D01*
X63043Y66705D01*
X63060Y66702D01*
X63376D01*
Y67307D01*
D02*
G37*
G36*
Y66519D02*
X63010D01*
X62974Y66516D01*
X62943Y66508D01*
X62916Y66497D01*
X62891Y66486D01*
X62871Y66472D01*
X62854Y66461D01*
X62846Y66452D01*
X62843Y66450D01*
X62818Y66422D01*
X62802Y66394D01*
X62788Y66366D01*
X62779Y66341D01*
X62774Y66316D01*
X62771Y66300D01*
Y66288D01*
Y66283D01*
Y66019D01*
X62774Y65983D01*
X62782Y65953D01*
X62793Y65925D01*
X62807Y65900D01*
X62821Y65880D01*
X62832Y65864D01*
X62841Y65855D01*
X62843Y65853D01*
X62871Y65830D01*
X62899Y65814D01*
X62927Y65800D01*
X62952Y65792D01*
X62977Y65786D01*
X62993Y65783D01*
X63376D01*
Y66519D01*
D02*
G37*
G36*
X60772Y67121D02*
X60567Y66311D01*
X60978D01*
X60772Y67121D01*
D02*
G37*
G36*
X58374Y67307D02*
X58007D01*
X57971Y67305D01*
X57941Y67296D01*
X57913Y67285D01*
X57888Y67274D01*
X57868Y67260D01*
X57852Y67249D01*
X57843Y67241D01*
X57841Y67238D01*
X57816Y67210D01*
X57799Y67182D01*
X57785Y67155D01*
X57777Y67130D01*
X57771Y67105D01*
X57768Y67088D01*
Y67077D01*
Y67071D01*
Y66808D01*
X57771Y66772D01*
X57779Y66741D01*
X57791Y66713D01*
X57804Y66688D01*
X57818Y66669D01*
X57829Y66652D01*
X57838Y66644D01*
X57841Y66641D01*
X57868Y66619D01*
X57896Y66602D01*
X57924Y66591D01*
X57949Y66583D01*
X57974Y66577D01*
X57990Y66574D01*
X58374D01*
Y67307D01*
D02*
G37*
G36*
X53363D02*
X52996D01*
X52960Y67305D01*
X52929Y67296D01*
X52902Y67285D01*
X52877Y67274D01*
X52857Y67260D01*
X52841Y67249D01*
X52832Y67241D01*
X52829Y67238D01*
X52805Y67210D01*
X52788Y67182D01*
X52774Y67155D01*
X52766Y67130D01*
X52760Y67105D01*
X52757Y67088D01*
Y67077D01*
Y67071D01*
Y66810D01*
X52760Y66774D01*
X52768Y66741D01*
X52780Y66713D01*
X52793Y66688D01*
X52807Y66669D01*
X52818Y66655D01*
X52827Y66644D01*
X52829Y66641D01*
X52857Y66619D01*
X52885Y66602D01*
X52913Y66591D01*
X52938Y66583D01*
X52963Y66577D01*
X52979Y66574D01*
X53363D01*
Y67307D01*
D02*
G37*
G36*
X87581Y83482D02*
X87574D01*
X87558Y83481D01*
X87544Y83475D01*
X87531Y83468D01*
X87520Y83461D01*
X87512Y83453D01*
X87506Y83445D01*
X87502Y83440D01*
X87500Y83438D01*
X87491Y83420D01*
X87482Y83400D01*
X87476Y83378D01*
X87474Y83355D01*
X87471Y83336D01*
X87469Y83320D01*
Y83313D01*
Y83309D01*
Y83306D01*
Y83304D01*
X87471Y83273D01*
X87474Y83247D01*
X87478Y83224D01*
X87484Y83206D01*
X87489Y83192D01*
X87493Y83182D01*
X87496Y83176D01*
X87498Y83175D01*
X87509Y83162D01*
X87520Y83152D01*
X87531Y83147D01*
X87543Y83141D01*
X87553Y83138D01*
X87560Y83137D01*
X87567D01*
X87582Y83138D01*
X87598Y83144D01*
X87610Y83151D01*
X87622Y83161D01*
X87632Y83169D01*
X87639Y83176D01*
X87643Y83182D01*
X87644Y83183D01*
X87656Y83203D01*
X87663Y83226D01*
X87668Y83248D01*
X87672Y83269D01*
X87675Y83289D01*
X87677Y83306D01*
Y83312D01*
Y83316D01*
Y83319D01*
Y83320D01*
X87675Y83348D01*
X87672Y83374D01*
X87667Y83393D01*
X87661Y83410D01*
X87657Y83424D01*
X87651Y83434D01*
X87648Y83440D01*
X87647Y83441D01*
X87636Y83455D01*
X87623Y83465D01*
X87610Y83472D01*
X87599Y83476D01*
X87589Y83481D01*
X87581Y83482D01*
D02*
G37*
G36*
X88442Y83792D02*
X88284D01*
X88269Y83791D01*
X88243D01*
X88232Y83789D01*
X88224D01*
X88215Y83788D01*
X88204Y83787D01*
X88197Y83785D01*
X88193Y83784D01*
X88191D01*
X88180Y83780D01*
X88170Y83774D01*
X88162Y83767D01*
X88155Y83761D01*
X88149Y83756D01*
X88145Y83750D01*
X88143Y83747D01*
X88142Y83746D01*
X88136Y83734D01*
X88131Y83723D01*
X88126Y83699D01*
X88125Y83688D01*
X88124Y83679D01*
Y83674D01*
Y83672D01*
X88125Y83656D01*
X88126Y83641D01*
X88129Y83627D01*
X88132Y83617D01*
X88136Y83608D01*
X88139Y83602D01*
X88140Y83598D01*
X88142Y83596D01*
X88149Y83586D01*
X88157Y83578D01*
X88164Y83572D01*
X88173Y83567D01*
X88180Y83562D01*
X88184Y83560D01*
X88188Y83558D01*
X88190D01*
X88197Y83557D01*
X88204Y83555D01*
X88224Y83554D01*
X88246Y83551D01*
X88269D01*
X88291Y83550D01*
X88442D01*
Y83792D01*
D02*
G37*
G36*
X112303Y92542D02*
X112061D01*
Y92384D01*
X112062Y92369D01*
Y92343D01*
X112064Y92332D01*
Y92324D01*
X112065Y92315D01*
X112066Y92304D01*
X112068Y92297D01*
X112069Y92293D01*
Y92291D01*
X112074Y92280D01*
X112079Y92270D01*
X112086Y92262D01*
X112092Y92255D01*
X112097Y92249D01*
X112103Y92245D01*
X112106Y92243D01*
X112107Y92242D01*
X112119Y92236D01*
X112130Y92231D01*
X112154Y92226D01*
X112165Y92225D01*
X112174Y92224D01*
X112179D01*
X112181D01*
X112198Y92225D01*
X112212Y92226D01*
X112226Y92229D01*
X112236Y92232D01*
X112246Y92236D01*
X112251Y92239D01*
X112255Y92240D01*
X112257Y92242D01*
X112267Y92249D01*
X112275Y92257D01*
X112281Y92264D01*
X112286Y92273D01*
X112291Y92280D01*
X112293Y92284D01*
X112295Y92288D01*
Y92290D01*
X112296Y92297D01*
X112298Y92304D01*
X112299Y92324D01*
X112302Y92346D01*
Y92369D01*
X112303Y92391D01*
Y92542D01*
D02*
G37*
G36*
X97350Y92742D02*
X97108D01*
Y92584D01*
X97109Y92569D01*
Y92543D01*
X97111Y92532D01*
Y92524D01*
X97112Y92515D01*
X97113Y92504D01*
X97115Y92497D01*
X97116Y92493D01*
Y92491D01*
X97120Y92480D01*
X97126Y92470D01*
X97133Y92462D01*
X97139Y92455D01*
X97144Y92449D01*
X97150Y92445D01*
X97153Y92443D01*
X97154Y92442D01*
X97166Y92436D01*
X97177Y92431D01*
X97201Y92426D01*
X97212Y92425D01*
X97221Y92424D01*
X97226D01*
X97228D01*
X97244Y92425D01*
X97259Y92426D01*
X97273Y92429D01*
X97283Y92432D01*
X97292Y92436D01*
X97298Y92439D01*
X97302Y92440D01*
X97304Y92442D01*
X97314Y92449D01*
X97322Y92457D01*
X97328Y92464D01*
X97333Y92473D01*
X97338Y92480D01*
X97340Y92484D01*
X97342Y92488D01*
Y92490D01*
X97343Y92497D01*
X97345Y92504D01*
X97346Y92524D01*
X97349Y92546D01*
Y92569D01*
X97350Y92591D01*
Y92742D01*
D02*
G37*
G36*
X97212Y91376D02*
X97205D01*
X97202D01*
X97184Y91375D01*
X97167Y91372D01*
X97153Y91368D01*
X97142Y91363D01*
X97133Y91359D01*
X97126Y91355D01*
X97122Y91352D01*
X97120Y91351D01*
X97111Y91339D01*
X97102Y91328D01*
X97096Y91317D01*
X97094Y91307D01*
X97091Y91297D01*
X97089Y91290D01*
Y91283D01*
X97091Y91269D01*
X97094Y91256D01*
X97099Y91245D01*
X97104Y91235D01*
X97109Y91228D01*
X97115Y91222D01*
X97118Y91220D01*
X97119Y91218D01*
X97132Y91210D01*
X97144Y91203D01*
X97159Y91198D01*
X97171Y91194D01*
X97184Y91193D01*
X97194Y91191D01*
X97199D01*
X97202D01*
X97222Y91193D01*
X97239Y91196D01*
X97254Y91200D01*
X97266Y91204D01*
X97275Y91210D01*
X97283Y91214D01*
X97287Y91217D01*
X97288Y91218D01*
X97298Y91228D01*
X97305Y91239D01*
X97309Y91251D01*
X97312Y91262D01*
X97315Y91270D01*
X97316Y91277D01*
Y91284D01*
X97315Y91299D01*
X97312Y91313D01*
X97308Y91324D01*
X97302Y91332D01*
X97297Y91341D01*
X97292Y91347D01*
X97290Y91349D01*
X97288Y91351D01*
X97275Y91359D01*
X97263Y91365D01*
X97247Y91370D01*
X97235Y91373D01*
X97222Y91375D01*
X97212Y91376D01*
D02*
G37*
G36*
X97622Y91392D02*
X97617D01*
X97612D01*
X97611D01*
X97610D01*
X97586Y91390D01*
X97564Y91387D01*
X97548Y91382D01*
X97532Y91376D01*
X97519Y91370D01*
X97511Y91365D01*
X97505Y91362D01*
X97504Y91361D01*
X97490Y91348D01*
X97480Y91335D01*
X97473Y91323D01*
X97469Y91311D01*
X97464Y91300D01*
X97463Y91292D01*
Y91284D01*
X97464Y91268D01*
X97469Y91252D01*
X97476Y91239D01*
X97483Y91228D01*
X97491Y91220D01*
X97497Y91213D01*
X97502Y91208D01*
X97504Y91207D01*
X97519Y91196D01*
X97538Y91189D01*
X97555Y91183D01*
X97572Y91179D01*
X97587Y91176D01*
X97600Y91175D01*
X97608D01*
X97610D01*
X97611D01*
X97639Y91176D01*
X97663Y91179D01*
X97683Y91184D01*
X97700Y91190D01*
X97713Y91196D01*
X97722Y91201D01*
X97728Y91204D01*
X97729Y91206D01*
X97742Y91218D01*
X97752Y91231D01*
X97759Y91244D01*
X97763Y91255D01*
X97766Y91266D01*
X97769Y91275D01*
Y91282D01*
X97767Y91299D01*
X97762Y91314D01*
X97756Y91327D01*
X97748Y91338D01*
X97741Y91348D01*
X97734Y91355D01*
X97729Y91359D01*
X97728Y91361D01*
X97711Y91370D01*
X97693Y91379D01*
X97673Y91385D01*
X97653Y91387D01*
X97636Y91390D01*
X97622Y91392D01*
D02*
G37*
%LPD*%
D10*
X100909Y88100D02*
Y92925D01*
X98459Y88100D02*
Y92925D01*
X100909D01*
X98459Y88100D02*
X100909D01*
X115878D02*
Y92925D01*
X113428Y88100D02*
Y92925D01*
X115878D01*
X113428Y88100D02*
X115878D01*
X86775Y82400D02*
Y84425D01*
X83150Y82400D02*
Y84425D01*
X86775D01*
X83150Y82400D02*
X86775D01*
D70*
X57237Y62373D02*
D03*
M02*
