M48
;Layer_Color=9474304
;FILE_FORMAT=4:3
METRIC,LZ
;TYPE=PLATED
T1F00S00C0.300
T2F00S00C0.500
T3F00S00C0.900
T4F00S00C1.050
T5F00S00C1.100
T6F00S00C2.700
%
T01
X0034Y00714
X00351
X00362
Y00728
X00351
X0034
X0098134Y0092348
X0098184Y0093148
X0098784Y0093948
X0099634Y0094098
X0100584Y0093948
X0101184Y0093148
X0101384Y0092348
X0113034Y0092248
X0113084Y0093048
X0113684Y0093848
X0114534Y0093998
X0115484Y0093848
X0116084Y0093048
X0116284Y0092248
X0115569Y01054
X0114719Y010525
X0113769Y01054
X0113169Y01062
X0112969Y0107
X0116219
X0116169Y01062
X01012Y01062
X010125Y0107
X01006Y01054
X009975Y010525
X00988Y01054
X00982Y01062
X0098Y0107
T02
X00818Y00628
X0087Y0063
X0089
X00912Y00597
X010265Y005995
X0101Y0078
X0094Y00761
X009Y00745
X01085Y00761
X00774Y00708
X00739Y00691
X00707Y00655
X00716Y00612
X00774Y00595
X00688Y00765
X0064
X0059Y0079
X0054Y00793
X0043Y00656
X00374Y0061
X00354Y00621
X0031Y00755
X00296Y00824
Y0085
X0038Y00795
X0042
X0046
X00495
X0092Y00855
X01044Y00836
X0107Y00855
X0113Y00853
X01082Y01032
X00935
T03
X00922Y006225
X009474
X009728
X009982
Y006987
X009728
X009474
X00922
T04
X00477Y009675
Y010425
X00475Y011405
X0065Y011425
X0065Y010425
Y009675
X0065Y012175
X00475Y012155
T05
X00955Y00546
X0099
X01025
T06
X00325Y009675
Y01123
X00829Y01218
X00979Y01218
X01129Y01218
M30
